<?xml version="1.0" standalone="no"?>
<!DOCTYPE svg PUBLIC "-//W3C//DTD SVG 1.1//EN" "http://www.w3.org/Graphics/SVG/1.1/DTD/svg11.dtd" >
<svg xmlns="http://www.w3.org/2000/svg">
<metadata>Generated by IcoMoon</metadata>
<defs>
<font id="icomoon" horiz-adv-x="512">
<font-face units-per-em="512" ascent="480" descent="-32" />
<missing-glyph horiz-adv-x="512" />
<glyph unicode="&#x20;" d="" horiz-adv-x="256" />
<glyph unicode="&#x2b;" d="M0 193.75v61q0 10.5 7.375 17.875t17.875 7.375h144v143.75q0 10.5 7.375 18t17.875 7.5h61q10.5 0 17.75-7.5t7.25-18v-143.75h144q10.5 0 18-7.375t7.5-17.875v-61q0-10.5-7.5-17.875t-18-7.375h-144v-144.5q0-10.5-7.25-17.75t-17.75-7.25h-61q-10.5 0-17.875 7.25t-7.375 17.75v144.5h-144q-10.5 0-17.875 7.375t-7.375 17.875z" horiz-adv-x="450" />
<glyph unicode="&#x40;" d="M0 219.25q0 100.75 66.5 170.75 70 74 179.5 74 89.5 0 147.5-50.5 61.75-53.5 61.75-142 0-69.25-39.25-119.5-38.75-50-89.25-50-25.5 0-40 16-14 16-14 33.25 0 0.75 0.25 2.125t0.25 2.375q0 0.75 0.125 2.75t0.125 3q-11.25-22.75-24-35-23.75-23.75-57.5-23.75-34 0-56.75 26.5-23 26.75-23 74.5 0 55.5 35 104 35.25 48.75 85 48.75 29.25 0 46.25-17.75 12.75-14.25 16.75-31.75l10 38.5h53.25l-36.25-133q-1.5-6.25-3.625-14.375t-2.375-9.625q-1.75-7.25-1.75-13.75 0-9.25 5.75-17.25 5.75-8.25 18-8.25 24.25 0 49 34.5 24.5 35 24.5 91.75 0 84.25-67 121.25-41 23.25-94 23.25-96.25 0-154.25-64-52.5-57.25-52.5-138.5 0-90.25 61.75-142.25 54.75-46.5 132.75-46.5 54 0 100.25 21.75 25.5 11.25 52.75 32.25l6.75 5q2 1.75 5 2.875t6.875 1.5 7.875-2.25 6.5-8.375q3-8.25 1.75-14.5t-4.25-9.75l-3.25-3.75q-39.75-33.75-86.75-51.75-47.25-17.75-96.75-17.75-117.25 0-181.75 79.5-53.5 65.5-53.5 155.75zM174 197.75q0-22.25 9.5-36.25 9.25-13.75 26.5-13.75 30 0 49.75 49.75 19 50 19 78.5 0 16.5-8.75 27.5-9 11-24.25 11-29.5 0-50.5-39.75-21.25-39.5-21.25-77z" horiz-adv-x="455" />
<glyph unicode="&#x2190;" d="M0 225.5l200 200.25q9.75 9.25 22.25 9.25 12.75 0 22-9.25t9.25-22.125-9.25-22.375l-124.5-124.25h328.75q13.25 0 22.5-9.25t9.25-22.25-9.25-22-22.5-9h-328.75l124.5-124.75q9.25-9.25 9.25-22.125t-9.25-22.125-22.125-9.25-22.125 9.25z" horiz-adv-x="481" />
<glyph unicode="&#x2191;" d="M0 226.125q0 13.125 9.25 22.375l200 200 200.25-200q9-9.25 9-22.5 0-13-9-22-9.25-9.25-22.25-9.25t-22 9.25l-124.75 124.5v-328.75q0-13-9-22.125t-22.25-9.125q-13 0-22.125 9.125t-9.125 22.125v328.75l-124.5-124.5q-9.25-9.25-22.125-9.25t-22.125 9.25q-9.25 9-9.25 22.125z" horiz-adv-x="419" />
<glyph unicode="&#x2192;" d="M0 222.5q0 13.25 9.125 22.125t22.125 8.875h329l-124.25 125q-9.5 9.25-9.5 22.25t9.5 21.75q9 9.5 21.625 9.5t22.625-9.5l200-200-200-200q-10.25-9.5-22.5-9.5t-21.75 9.5-9.5 22.375 9.5 21.875l124.25 124.25h-329q-13 0-22.125 9.25t-9.125 22.25z" horiz-adv-x="481" />
<glyph unicode="&#x2193;" d="M0 189.75q0 12.75 9.25 22t22.25 9.25 22-9.25l124.5-124.25v328.5q0 13.25 9.25 22.375t22.25 9.125 22-9.125 9-22.375v-328.5l124.75 124.25q9.25 9.25 22.125 9.25t22.125-9.25q9.25-9 9.25-22t-9.25-22.25l-200-200-200.25 200q-9.25 9.75-9.25 22.25z" horiz-adv-x="419" />
<glyph unicode="&#x21d0;" d="M0 231.75l270 195v-105h210v-180h-210v-120.25z" />
<glyph unicode="&#x21d1;" d="M0 189.25l203.25 274.75 202-274.75h-110.75v-205.25h-184v205.25h-110.5z" horiz-adv-x="405" />
<glyph unicode="&#x21d2;" d="M0 132v184h205.25v110.75l274.75-203.25-274.75-202v110.5h-205.25z" />
<glyph unicode="&#x21d3;" d="M0 258.75h110.25v205.25h184.25v-205.25h110.25l-202.75-274.75z" horiz-adv-x="405" />
<glyph unicode="&#x2212;" d="M0 193.5v61.25q0 10.5 7.375 17.75t17.875 7.25h399q10.5 0 18.125-7.25t7.375-17.75v-61.25q0-10.5-7.5-17.75t-18-7.25h-399q-10.5 0-17.875 7.25t-7.375 17.75z" horiz-adv-x="450" />
<glyph unicode="&#x2302;" d="M0.125 219.125q-1.375 7.875 10.625 18.875l195 180q12 11 29.125 11t29.125-11l194.75-180q12-11 10.625-18.875t-15.375-7.875h-46.75v-156.25q0-16.25-11.75-28t-28-11.75h-265.25q-16.25 0-28 11.75t-11.75 28v156.25h-47q-14 0-15.375 7.875z" horiz-adv-x="470" />
<glyph unicode="&#x231b;" d="M0 26v35.75q0 11.25 6 25.125t12.375 23.625 19.375 28.25l12.375 16.5t13.625 18.625 11.125 16.875 9 18 2.875 15.25-2.875 15.25-9 18-11.125 16.875-13.625 18.625l-12.375 16.5q-13.25 18.75-19.5 28.25t-12.25 23.375-6 25.125v35.75q0 17.5 12.5 29.875t30.25 12.375h214.5q17.75 0 30.25-12.375t12.5-29.875v-35.75q0-11.25-6-25.125t-12.25-23.375-19.5-28.25l-12.375-16.5t-13.625-18.625-11.125-16.875-9-18-2.875-15.25 2.875-15.25 9-18 11.125-16.875 13.625-18.625l12.375-16.5q13-18.5 19.375-28.25t12.375-23.625 6-25.125v-35.75q0-17.5-12.5-29.75t-30.25-12.25h-214.5q-17.75 0-30.25 12.25t-12.5 29.75zM51.25 44h20.25q0 4.25 1.25 8.625t4.375 9 6.125 8.5 8.75 8.875 9.75 8.375 11.5 8.75 11.625 8.375 12.75 8.875 12.375 8.625q4-2.75 13.625-9.5t14.25-10 12.875-9.375 12.5-10 9.875-9.5 8.375-10 4.875-9.625 2.125-10h20.25v17.75q0 3.75-6.75 16-4.25 7.25-21.75 32.25-27.25 38.5-36.5 55.25-17.5 32.5-17.5 58.75 0 13.5 4 27.625t12.75 29.5 15.25 25.25 18.25 26.375l3.75 5.25q16.75 23.75 21.75 32.5 3 5 4.625 8.875t1.875 5.375l0.25 1.25v17.75h-197.5v-17.75q0.25-4 6.75-15.5 5-8.75 21.75-32.5 27.25-38.5 36.5-55.25 17.5-32.5 17.5-58.75 0-13.5-4-27.625t-12.75-29.5-15.25-25.25-18.25-26.375q-0.5-0.75-0.875-1.25t-1-1.25-1-1.375-0.875-1.375q-17.5-25-21.75-32.25-6.75-12.25-6.75-16v-17.75z" horiz-adv-x="300" />
<glyph unicode="&#x23f1;" d="M0 361l125.75 125.75 42-42-21-21 22-22q29.5 17.75 63.25 26.75v52h118.5v-52q50.75-13.25 91.125-46.25t63.5-81 23.125-102.25q0-48.25-18.75-92.125t-50.5-75.75-75.625-50.75-92.125-18.875-92.25 18.875-75.75 50.75-50.5 75.75-18.75 92.125q0 63 31.75 118.25l-23 22.5-20.75-20.75zM113.5 199q0-48.25 23.875-89.25t64.75-65 89.125-24 89.25 24 64.875 65 23.875 89.25-23.875 89.125-64.875 64.75-89.25 23.875-89.125-23.875-64.75-64.75-23.875-89.125zM174 265.5q0 12.25 8.5 21 8.75 8.75 21 8.75t21-8.75l71.5-71.5h101.5q12.25 0 20.875-8.75t8.375-21q0-12.75-8.5-20.75-9-9-20.75-9h-113.5q-2 0-6 0.5l-2.5 1-3 0.75q-0.75 0.25-1.625 0.875t-1.125 0.625l-2.25 1.5q-1.75 0.75-4.75 3.75l-80.25 80.25q-8.5 8.5-8.5 20.75z" horiz-adv-x="529" />
<glyph unicode="&#x23f2;" d="M0 224q0 48.75 19 93.25t51.125 76.625 76.625 51.125 93.25 19 93.25-19 76.625-51.125 51.125-76.625 19-93.25-19-93.25-51.125-76.625-76.625-51.125-93.25-19-93.25 19-76.625 51.125-51.125 76.625-19 93.25zM60 224q0-49 24.125-90.375t65.625-65.5 90.25-24.125q49 0 90.375 24.125t65.5 65.5 24.125 90.375q0 48.75-24.125 90.25t-65.5 65.625-90.375 24.125q-36.5 0-69.875-14.25t-57.5-38.375-38.375-57.5-14.25-69.875zM210 224v115q0 12.25 8.75 21.125t21.25 8.875 21.25-8.875 8.75-21.125v-102.5l72.5-72.5q8.75-8.75 8.75-21.25t-8.75-21.25-21-8.75q-12.5 0-21.25 8.75l-81.5 81.25q-0.75 0.75-1.875 2.375t-1.625 2.125q-0.5 0.75-1.25 2.25l-0.75 1.5t-0.75 1.75q-0.25 0.25-1 2.75-0.75 2.25-0.75 2.5-0.75 3-0.75 6z" />
<glyph unicode="&#x2601;" d="M0.125 176.25q-1.125 23 5 44.125t17.75 39.875 29.375 33.25 39.5 23q39.5 15 79.75 6.5 18.75 41.25 57 66.375t85 25.125q31.75 0 60.625-12.375t49.75-33.25 33.25-49.75 12.375-60.625q0-4.75-1-13.75 0.75 0 1.875 0.5t1.625 0.5q41.25 16 81.5-1.875t56.25-59.125q10-28.5 6-55.375t-22-49.5-45.25-33.125q-18.75-7-37-7.25l-368.25 0.25q-43.75 0-80.625 24.875t-52.875 66.875q-8.5 21.75-9.625 44.75z" horiz-adv-x="617" />
<glyph unicode="&#x2605;" d="M0.75 280.25q6 19 52 19h115.5l35.25 106.25v0.5q9.5 28.5 22.25 38.625t25.375 0 22.125-38.625l0.25-0.5 35-106.25h115.5q30 0 43.5-8.75t7.625-23.625-30.375-32.375l-2.5-2-90.5-64.75 34.75-106 0.75-1q14-43.5-2.25-55.625t-53.5 14.625l-1.5 1-1.25 0.75-90.5 65-91.75-65.75-1-1q-37.25-26.75-53.75-14.625t-2 55.625l0.25 0.5v0.75l34.75 105.75-90.5 64.75-1 1-1.25 1q-37.25 26.75-31.25 45.75z" horiz-adv-x="477" />
<glyph unicode="&#x2606;" d="M1.625 268.25q-6.375 16 8.125 25.375t46.75 9.375h123.75l37.75 114v0.5q7.5 23 17.25 34.75t20.25 11.75q10.25 0 20-11.75t17.25-34.75l0.5-0.5 37.25-114h123.75q32.25 0 46.75-9.375t8.125-25.375-32.625-34.75l-2.5-2-97.25-69.5 37.5-113 0.5-1.75q9.75-30.5 5.625-46.625t-20.375-16.125q-18.75 0-44.75 19.25l-3 1.75-96.75 69.5-99.75-71.25q-26.75-19.75-45-19.75-16.25 0-20.375 16.375t5.625 46.875l0.5 1.75 37.5 113-97.25 69.5-1 1.25-1.5 0.75q-26.25 18.75-32.625 34.75zM86.25 255l104-74.25-10.75-33.5-29.25-88.5 105.25 75.25 105-75.25-29 88.5-11 33.5 104 74.25h-128.5l-10.75 33-29.75 89.75-40.75-122.75h-128.5z" horiz-adv-x="511" />
<glyph unicode="&#x2640;" d="M0 318.5q0 29.5 11.625 56.5t31.125 46.5 46.5 31 56.5 11.5q39.25 0 72.875-19.5t53.25-53 19.625-73q0-50.75-31.5-90.125t-79.75-51.125v-40.25h49q14.5 0 24.625-10t10.125-24.5-10.125-24.75-24.625-10.25h-49v-48.75q0-14.5-10-24.625t-24.5-10.125-24.75 10.125-10.25 24.625v48.75h-48.75q-14.5 0-24.5 10.25t-10 24.75 10 24.5 24.5 10h48.75v40.25q-48.25 11.75-79.5 51.125t-31.25 90.125zM69.75 318.5q0-31.5 22.25-53.75t53.75-22.25 53.75 22.25 22.25 53.75-22.25 53.75-53.75 22.25-53.75-22.25-22.25-53.75z" horiz-adv-x="292" />
<glyph unicode="&#x2642;" d="M0 180.5q0 30.25 11.75 57.75t31.75 47.5 47.5 31.75 57.75 11.75q41.5 0 77.25-21.5l52.75 53h-24.25q-11.75 0-20.125 8.25t-8.375 20 8.375 20 20.125 8.25h103.25q11.75 0 20-8.25t8.25-20v-103q0-11.75-8.25-20.125t-20-8.375-20.125 8.375-8.375 20.125v24.5l-53-53q21.75-35.5 21.75-77 0-40.5-20-74.875t-54.375-54.5-74.875-20.125q-40.25 0-74.625 20.125t-54.25 54.5-19.875 74.875zM71.25 180.5q0-32 22.75-55t54.75-23q32.25 0 55.125 22.875t22.875 55.125-22.875 55.125-55.125 22.875q-32 0-54.75-23t-22.75-55z" horiz-adv-x="386" />
<glyph unicode="&#x2665;" d="M0 316.5q0 52.75 37.625 90.125t90.625 37.375q35.5 0 65.25-17.75t46.5-47.25q16.75 29.5 46.5 47.25t65.25 17.75q53 0 90.625-37.375t37.625-90.125q0-49-32.5-85l-175.5-206.75q-13-15.5-32-15.5t-32 15.5l-175.5 206.75q-32.5 36-32.5 85z" />
<glyph unicode="&#x2693;" d="M-0.25 148.375q0 3.875 2.5 6.625l52.25 62.75 11.25-14 39.75-49.25q2.5-3.25 2-7t-3.75-6.25q-5.5-4.25-11.5 0l-12 9.75q8.25-31 32.25-51.625t58.25-28.125q3-0.25 5.25 0t5.375 3.75 3.125 10.5v199.25q0 5-3 8t-6 3.5l-2.75 0.5h-20.5q-10 0-17.125 7t-7.125 17 7 17 17.25 7h21.25q1 0.25 1.875 0.5t2.25 0.875 2.5 1.5 2.125 2.125 1.625 3.125 0.625 4.125v5q-15.75 7-25.375 21.75t-9.625 32.75q0 24.25 17.25 41.625t41.75 17.375 42-17.375 17.5-41.625q0-18-9.875-32.75t-25.625-21.75v-5.25q0-2.25 0.625-4t1.75-3 2.25-2.125 2.375-1.375 2.25-0.875 1.75-0.625h22q9.75 0 16.875-7t7.125-17q0-9.75-7.125-16.875t-16.875-7.125h-21q-1.25 0-3.25-0.375t-5.375-3.375-3.375-8v-199.5q0-7 3.125-10.5t5.5-3.75 5.375 0q34.25 7.5 58.375 28.125t32.375 51.625l-12-9.75q-3.25-2.5-6.875-2t-6.375 3.25q-4.25 6.25 0 12l39.75 49.25 11 14 52.5-62.75q2.5-3.25 2.125-7.75t-3.625-7.25q-3-2.5-7-2.5t-6.75 2.5l-15.25 13q-8.5-52.5-44.625-91.625t-87.375-52.375q-0.5-0.5-1-0.5-7.25-1.75-12.625-6.5t-7.125-11q-2-8-8.5-13.125t-15-5.125q-8.25 0-14.625 5.125t-8.375 13.125q-1.75 6.25-7.125 11t-12.625 6.5q-0.75 0-1.25 0.5-51.25 13.25-87.375 52.375t-44.625 91.625l-15-13q-3.25-2.75-7.75-2.375t-7.5 3.875q-2.5 3-2.5 6.875zM179.25 416.5q0-9.75 5.25-17.5v2.5q0 10 7 17t17 7 17-6.875 7-17.125v-2.5q5.75 8 5.75 17.5 0 12-8.75 20.5t-21 8.5-20.75-8.5-8.5-20.5z" horiz-adv-x="418" />
<glyph unicode="&#x26a1;" d="M0 221.75l198 239q2 2 4.75 2.25t4.75-1.5q3.25-2.75 2-6.75l-53.25-176 132.5-53-197-238.5q-1.75-2-4.625-2.25t-4.875 1.5q-3.25 3-2 6.75l53.25 176.25z" horiz-adv-x="289" />
<glyph unicode="&#x2709;" d="M0 59v330q0 4 1.25 9.5l235.5-236q19.75-19.75 48.5-19.75 28.25 0 48 19.75l236 236q0.75-5 0.75-9.5v-330q0-18.5-13.125-31.75t-31.625-13.25h-480q-18.5 0-31.875 13.25t-13.375 31.75zM32.25 432q6.5 2 13 2h480q6 0 12.5-2l-237.25-237q-6.25-6.25-15.5-6.25t-15.5 6.25z" horiz-adv-x="570" />
<glyph unicode="&#x270f;" d="M0-16l30.5 144 321.5 321.75q10.75 10.75 25.875 10.75t25.625-10.5l62.25-62.25q10.75-10.75 10.625-25.625t-10.625-25.625l-321.75-321.75zM34.75 19l99.5 23 12 12.5-76.25 76.25-12.25-12.25z" horiz-adv-x="477" />
<glyph unicode="&#x2712;" d="M3.75 110.5q-8.5-8.5 2.375-29.5t29.75-40.125 39.625-30.125 29.75-2l114 114.25q-28.25 19.5-55 46.25-12 12-23.625 25.625t-17.125 21.375l-5.75 7.75zM142.5 231.625q-4 12.125 1.75 17.625 5.75 5.75 11.75 21t8.75 31l2 10.5q2.75 15.75 15.375 31.75t27.125 22.25l203.25 90.75q14.75 6.25 17.25 2.625t-9-15.125l-104-103.5q-21.75-22.25-27-27.25-10.75 5.25-23.375 3.25t-21.625-10.75q-11.5-11.5-11.5-27.75t11.5-28q11.75-11.75 28-11.75t27.75 11.75q8.75 8.75 10.875 21.25t-3.125 23.25q7.25 7.5 27 27.25l104 104q11.5 11.5 15 9t-2.75-17.25l-90.75-203.5q-6.5-14.5-22.375-26.875t-31.875-15.125l-10.25-2q-15.75-2.75-31-8.75t-21-11.75-17.625-1.75-23.375 15.5l-45.25 44.75q-11.5 11.5-15.5 23.625z" horiz-adv-x="456" />
<glyph unicode="&#x2713;" d="M0 218.375q0-17.875 12.5-30.375l125.75-122.75q12.5-12.5 31-12.5 18 0 30.5 12.5l258.75 253.5q13 12.5 13 30.25t-13 30q-13 12.5-30.875 12.5t-30.875-12.5l-227.5-223.25-95 93q-13 12.5-30.875 12.5t-30.875-12.5q-12.5-12.5-12.5-30.375z" horiz-adv-x="472" />
<glyph unicode="&#x274c;" d="M0 91q0 18.25 13.25 31.5l100 100-100 100.25q-13.25 13-13.25 31.25t13.25 31.25 31.375 13 31.125-13l100.25-100.25 100 100.25q13 13 31.25 13t31.25-13 13-31.25-13-31.25l-100-100.25 100-100q13-13.25 13-31.5t-13-31.25q-12.75-13-31.25-13t-31.25 13l-100 100-100.25-100q-12.75-13-31.25-13t-31.25 13q-13.25 13-13.25 31.25z" horiz-adv-x="352" />
<glyph unicode="&#x2754;" d="M0 224q0 49 19 93.375t51.125 76.5 76.5 51.125 93.375 19q48.75 0 93.25-19t76.625-51.125 51.125-76.5 19-93.375q0-48.75-19-93.125t-51.125-76.625-76.625-51.25-93.25-19q-49 0-93.375 19t-76.5 51.25-51.125 76.625-19 93.125zM60 224q0-36.5 14.25-69.875t38.375-57.5 57.5-38.375 69.875-14.25 69.875 14.25 57.5 38.375 38.375 57.5 14.25 69.875q0 49-24.125 90.375t-65.625 65.5-90.25 24.125-90.25-24.125-65.625-65.5-24.125-90.375zM170.75 314.5l15.75-52q23 14.75 47.5 14.75 25.25 0 25.25-11.75 0-2-0.875-3.75t-1.875-2.875-3.125-2.625-3.375-2.25-4.25-2.25l-4-2-20.5-11q-11-6-14.125-12.75t-3.125-18.75v-18.75h59.75v8q0 3.75 0.25 5.25t1.25 2.875 3.25 2.625q0.5 0.25 5.375 2.5t8.875 4.25 9.5 5.375 9.5 6.625q9.75 8.75 15 19t5.25 28.25q0 25.25-21.375 42.625t-54.125 17.375q-42.5 0-75.75-18.75zM195.25 143.25q0-16.25 10.5-25.125t28.25-8.875q17.25 0 27.75 8.875t10.5 25.125-10.5 25.25-27.75 9q-17.75 0-28.25-9t-10.5-25.25z" />
<glyph unicode="&#x2755;" d="M0 224q0 49 19 93.375t51.125 76.5 76.5 51.125 93.375 19q48.75 0 93.25-19t76.625-51.125 51.125-76.5 19-93.375q0-48.75-19-93.25t-51.125-76.625-76.625-51.125-93.25-19q-49 0-93.375 19t-76.5 51.125-51.125 76.625-19 93.25zM60 224q0-49 24.125-90.375t65.625-65.5 90.25-24.125q49 0 90.375 24.125t65.5 65.5 24.125 90.375q0 48.75-24.125 90.25t-65.5 65.625-90.375 24.125q-36.5 0-69.875-14.25t-57.5-38.375-38.375-57.5-14.25-69.875zM198.5 324.75q-1.75 18 9.75 32t29.75 15.75q18 1.75 32-9.75t15.75-29.5q0.5-4.5 0-8.5l-13.75-125.25q-1-12.25-10.625-20.125t-22.125-6.625q-10.75 1-18.375 8.625t-8.875 18.125zM204.5 114q0 16 11.25 26.5 10.25 10.5 26.375 10.5t26.375-10.5q11.25-10.5 11.25-26.5t-11.25-26.5q-10.5-11.25-26.5-11.25-15.75 0-26.25 11.25-11.25 10.5-11.25 26.5z" />
<glyph unicode="&#x9881;" d="M0 225.25q0 19.25 3.75 42.25 25.5-1.75 48.375 10t35.875 34.5q13 23.5 11.75 49t-15.5 46.75q33 28.5 77 44 11.75-21.25 32.75-33.875t46-12.625 45.875 12.625 32.625 33.875q43.5-15.5 77-44-11-20.25-11-43.625t12-44.125q12.25-21.25 33.25-33t44.75-11.75q5.5-25.25 5.5-50 0-16.5-3.5-38.25-23-0.5-43.125-12.375t-32.125-32.625q-12.75-22.5-12.125-47.125t13.625-45.375q-33.75-31-74.5-47.5-11.75 21.5-32.875 34.25t-46.125 12.75q-26.75 0-48.875-14.375t-32.875-38.125q-42.25 13.5-78.25 42.25 14.25 21 15.375 46.375t-12.125 48.875q-13.5 23.75-37.625 35.625t-50.375 8.875q-4.5 21-4.5 46.75zM150 225.25q0-37.25 26.375-63.625t63.625-26.375 63.625 26.375 26.375 63.625-26.375 63.625-63.625 26.375-63.625-26.375-26.375-63.625z" />
<glyph unicode="&#xe001;" d="M1 269.625q2.5 4.375 10.25 4.375h34.75q12.75 60.5 53.625 107.375t98.625 67.875l2 0.75q14.25 4.5 17 5.25 3 1 4.75 1.5l15.25 3.25q1.5 0.25 4.25 0.75t4 0.5l6.125 0.875t6.875 0.875q8.5 0.75 17.5 0.75 1 0 2.375 0.125t2.125 0.125h0.75q83-0.5 147-50.75 12.25-9.25 14-24.625t-7.75-27.625q-9.25-12.25-24.625-14t-27.625 7.75q-44.75 34.75-101.75 34.75-7.5 0-15.25-0.75-0.5 0-5-0.75-3-0.25-9.75-1.25-1 0-2.125-0.25t-2.5-0.625-2.125-0.625l-6.5-1.75q-1.5-0.25-8.75-2.25l-1.75-0.75q-37-13-64.25-41.125t-39-65.375h22q7.75 0 10.25-4.375t-1.5-10.625l-69-113.25q-3-4-7-4-1.75 0-3.375 1t-2.375 2l-0.75 1-69.25 113.25q-4 6.25-1.5 10.625zM119.5 59.875q-1.75 15.375 7.75 27.375 9.25 12.25 24.625 14.125t27.625-7.625q45-35 101.75-35 7.25 0 15.25 0.75 0.75 0 2.5 0.125t2.5 0.375q1.5 0.25 3.125 0.5t3.625 0.5 3 0.5q0.75 0.25 2.125 0.625t2.5 0.625 2.125 0.25l6.5 1.75q1.25 0.5 4.25 1.25t4.5 1.25q1 0.5 1.5 0.5 37 13 64.375 41.25t39.125 65.5h-22.25q-7.5 0-10 4.25t1.5 10.5l69 113.5q3 4 7 4 1.75 0 3.375-1t2.375-2l0.75-1 69.25-113.5q4-6.25 1.5-10.5t-10.25-4.25h-34.75q-13-60.75-53.875-107.5t-98.375-67.75l-2-0.75q-5.5-2-17-5.5-0.75 0-2.25-0.5t-2.5-0.75q-7.5-2.25-15.5-3.25-1.25-0.25-4-0.75t-4-0.75l-13-1.75q-2.5-0.25-5.5-0.375t-6.5-0.25-5.5-0.125q-1 0-2.375-0.25t-2.125-0.25l-0.5 0.5-0.5-0.5v0.5q-82.25 0-146.75 50.75-12.25 9.25-14 24.625z" horiz-adv-x="562" />
<glyph unicode="&#xe002;" d="M154 224q0 35.75 25.25 61t60.75 25.25 60.75-25.25 25.25-61-25.25-60.75q-25.25-25.25-60.75-25.25t-60.75 25.25q-25.25 25-25.25 60.75z" />
<glyph unicode="&#xe003;" d="M77.75 83.375q0 38.125 26.75 65.125 27 26.75 65 26.75t65-26.75q27-27 27-65.125t-27-64.875q-27-27-65-27t-65 27q-26.75 26.75-26.75 64.875zM218.25 364.875q0 38.125 27 64.875 26.75 27 64.75 27t64.75-27q27-26.75 27-64.875t-27-64.875q-26.75-27-64.75-27t-64.75 27q-27 26.75-27 64.875z" />
<glyph unicode="&#xe004;" d="M0 364q0 37.75 26.5 64.5 26.75 26.75 64.625 26.75t64.625-26.75q17.5-17.5 23.625-41t0-47-23.625-41q-26.75-26.75-64.625-26.75t-64.625 26.75q-26.5 26.75-26.5 64.5zM136 84.125q0 37.875 26.5 64.625 26.75 26.5 64.625 26.5t64.625-26.5q17.5-17.5 23.625-41.125t0-47.125-23.625-41-41.125-23.625-47.125 0-41 23.625q-26.5 26.75-26.5 64.625zM279.75 364q0 37.75 26.75 64.5 26.5 26.75 64.375 26.75t64.625-26.75 26.75-64.5-26.75-64.5-64.625-26.75-64.375 26.75q-26.75 26.75-26.75 64.5z" horiz-adv-x="462" />
<glyph unicode="&#xe005;" d="M0 85.5q0 38.25 27.5 65.5 26.75 26.75 65 26.75 22.25 0 41-9.25l131.25 131q15.75-25.75 41.75-40.75l-131.25-131.75q13.25-25.75 8.625-55.5t-25.875-51.75q-26.75-26.75-65.5-26.75-38.25 0-65 26.75-27.5 27.5-27.5 65.75zM44.25 85.5q0-20.25 14-34.25 14.5-14.5 34.25-14.5t34.25 14.5 14.5 34.25-14.5 34.25q-14.25 14.25-34.25 14.25t-34.25-14.25q-14-14-14-34.25zM277.5 362.75q0 38.25 27 65.25 27.25 27.25 65.5 27.25 38 0 65.25-27.25 27-27 27-65.25t-27-65.25-65.25-27q-38.5 0-65.5 27t-27 65.25zM321.5 362.75q0-20 14.25-34.25 14-14 34.25-14t34.25 14 14 34.25-14 34.25q-14.25 14.25-34.25 14.25t-34.25-14.25-14.25-34.25z" horiz-adv-x="462" />
<glyph unicode="&#xe006;" d="M0 351.25q0 37.5 26.5 64t64.25 26.5q37.5 0 64-26.5 15.25-15.25 22-35.5h76.5q-3.5-14.5-3.5-28.75 0-14 3.5-28.5h-76.5q-6.5-19.75-22-35.5-26.5-26.5-64-26.5-37.75 0-64.25 26.5-26.5 26.75-26.5 64.25zM43.5 351q0-19.75 13.75-33.75 13.75-13.75 33.5-13.75 19.25 0 33.75 13.75 14 14 14 33.75t-14 33.75-33.75 14q-20.25 0-33.5-14-13.75-14-13.75-33.75zM143.125 73.875q-6.125 23.375 0 46.875t23.625 41q26.75 26.75 64.5 26.75 37.25 0 64-26.75t26.75-64.375-26.75-64.375q-26.5-26.5-64-26.5-38 0-64.5 26.5-17.5 17.5-23.625 40.875zM183.5 97.5q0-19.75 14-33.75 13.25-14 33.75-14 19.5 0 33.5 14 13.75 14 13.75 33.75t-13.75 33.75q-14.75 14-33.5 14-19.75 0-33.75-14t-14-33.75zM263.25 215l40.75 75.5q-24 26.75-23.125 63t26.375 61.75q26.5 26.5 64.25 26.5t64.25-26.5q17.5-17.5 23.625-40.75t0-46.625-23.625-40.875q-26.5-26.5-64.25-26.5-8 0-17.5 1.25l-40.5-74.75q-20.75 19.5-50.25 28zM324 351q0-19.75 13.75-33.75 13.75-13.75 33.75-13.75 19.25 0 33.75 13.75 13.75 14 13.75 33.75t-13.75 33.75q-14 14-33.75 14-20.5 0-33.75-14-13.75-14-13.75-33.75z" horiz-adv-x="463" />
<glyph unicode="&#xe007;" d="M0 351.25q0 37.5 26.5 64t64 26.5q37.75 0 64.25-26.5 15.5-15.75 22-35.5h76.5q-3.5-14.5-3.5-28.5 0-14.25 3.5-28.75h-76.5q-6-17.75-18.75-32l56.5-103.5q11 1.5 16.25 1.5 37.75 0 64.5-26.75 17.5-17.5 23.625-40.875t0-46.875-23.625-41q-26.5-26.5-64.5-26.5-37.75 0-64.25 26.5-25.75 26-26.375 62.75t24.125 63.25l-56.25 103q-7-1.5-17.5-1.5-37.5 0-64 26.5-26.5 26.75-26.5 64.25zM43.5 351q0-19.75 13.75-33.5 13.25-14 33.25-14 20.5 0 33.75 14 13.75 13.75 13.75 33.5t-13.75 33.75q-13.25 14-33.75 14-20 0-33.25-14-13.75-14-13.75-33.75zM183.5 97.5q0-19.75 13.75-33.75 14.75-14 33.5-14 19.75 0 33.75 14t14 33.75-14 33.75q-13.25 14-33.75 14-19.5 0-33.5-14-13.75-14-13.75-33.75zM263.25 215.25l40.75 75.25q-24.25 26.75-23.375 62.875t26.625 61.875q26.5 26.5 64.25 26.5 37.5 0 64.25-26.5 17.5-17.5 23.625-40.75t0-46.625-23.625-40.875q-26.75-26.5-64.25-26.5-10.5 0-17.5 1.5l-40.5-74.75q-21.75 20-50.25 28zM324 351q0-19.75 13.75-33.5 13.25-14 33.75-14 19.75 0 33.75 14 13.75 13.75 13.75 33.5t-13.75 33.75q-14 14-33.75 14-20.5 0-33.75-14-13.75-14-13.75-33.75z" horiz-adv-x="463" />
<glyph unicode="&#xe016;" d="M0 83.25v341.5q0 16.25 13.125 27.75t31.625 11.5h461.5q18.5 0 31.875-11.5t13.375-27.75v-341.5q0-16.25-13.375-27.875t-31.875-11.625h-124.25v-29.75q0-12.25-8.75-21.125t-21.25-8.875h-153.5q-12.5 0-21.25 8.875t-8.75 21.125v29.75h-123.75q-18.5 0-31.625 11.625t-13.125 27.875zM60 103.75h431.5v83h-101.5q-4.75-13.5-16.625-22.125t-26.625-8.625q-19 0-32.125 13.25t-13.125 32.25q0 16.25 10.25 28.5l-26.5 42.75q-8.25-1.25-10-1.25t-9.75 1.25l-26-42.25q10.5-13 10.5-29 0-19-13.375-32.25t-32.375-13.25q-14.75 0-26.375 8.625t-16.375 22.125h-101.5v-83zM60 216.75h101.5q4.75 13.5 16.375 22t26.375 8.5q4.25 0 9.75-1.25l26 42.5q-10.25 13-10.25 28.75 0 19 13.25 32.375t32.25 13.375 32.25-13.375 13.25-32.375q0-15.5-10.25-28.5l26.75-42.75q5.5 1.25 9.5 1.25 14.75 0 26.625-8.5t16.625-22h101.5v187.25h-431.5v-187.25z" horiz-adv-x="552" />
<glyph unicode="&#xf004;" d="M0 318q0 12.75 9.25 22t22.25 9.25 22-9.25l156-155.5 155.75 155.5q9.25 9.25 22.25 9.25t22-9.25q9.25-9.25 9.25-22.125t-9.25-22.125l-200-200-200.25 200q-9.25 9.75-9.25 22.25z" horiz-adv-x="419" />
<glyph unicode="&#xf005;" d="M0 130.375q0 13.125 9.25 22.125l200 200 200-200q9-9 9-22 0-13.25-9-22.5-9.25-9-22.25-9t-22.25 9l-155.5 156-155.75-156q-9.25-9-22.25-9t-22 9q-9.25 9.25-9.25 22.375z" horiz-adv-x="419" />
<glyph unicode="&#xf006;" d="M0 44.625q0 12.875 9.25 22.125l156 155.75-156 156q-9.25 9.25-9.25 22.125t9.25 22.125 22.25 9.25 22.25-9.25l200-200.25-200-200q-9.75-9.25-22.25-9.25t-22.25 9.25q-9.25 9.25-9.25 22.125z" horiz-adv-x="254" />
<glyph unicode="&#xf007;" d="M0 225.5l200.25 200.25q9.25 9.25 22 9.25 12.5 0 22.25-9.25 9-9.25 9-22.25t-9-22.25l-156-155.75 156-156q9-9 9-22t-9-22.25q-9.25-9-22.25-9t-22 9z" horiz-adv-x="254" />
<glyph unicode="&#xf008;" d="M34.75 76.5q0-15.25 11-26.125t26-10.875h406.25q15.25 0 26 10.875t10.75 26.125-10.75 26-26 10.75h-406.25q-15 0-26-10.75t-11-26zM34.75 224q0-15.25 11-26t26-10.75h406.25q15.25 0 26 10.75t10.75 26-10.75 26.125-26 10.875h-406.25q-15 0-26-10.875t-11-26.125zM34.75 371.75q0-15.25 11-26t26-10.75h406.25q15.25 0 26 10.75t10.75 26-10.75 26.125-26 10.875h-406.25q-15 0-26-10.875t-11-26.125z" horiz-adv-x="550" />
<glyph unicode="&#xf009;" d="M0 76.5q0-15.25 10.75-26.125t26-10.875h16.5q15.25 0 26 10.875t10.75 26.125-10.75 26-26 10.75h-16.5q-15.25 0-26-10.75t-10.75-26zM0 224q0-15.25 10.75-26t26-10.75h16.5q15.25 0 26 10.75t10.75 26-10.75 26.125-26 10.875h-16.5q-15.25 0-26-10.875t-10.75-26.125zM0 371.75q0-15.25 10.75-26t26-10.75h16.5q15.25 0 26 10.75t10.75 26-10.75 26.125-26 10.875h-16.5q-15.25 0-26-10.875t-10.75-26.125zM120 76.5q0-15.25 10.75-26.125t26-10.875h286.5q15.25 0 26 10.875t10.75 26.125-10.75 26-26 10.75h-286.5q-15.25 0-26-10.75t-10.75-26zM120 224q0-15.25 10.75-26t26-10.75h286.5q15.25 0 26 10.75t10.75 26-10.75 26.125-26 10.875h-286.5q-15.25 0-26-10.875t-10.75-26.125zM120 371.75q0-15.25 10.75-26t26-10.75h286.5q15.25 0 26 10.75t10.75 26-10.75 26.125-26 10.875h-286.5q-15.25 0-26-10.875t-10.75-26.125z" />
<glyph unicode="&#xf00a;" d="M0 11.25v146.5q0 11 7.75 18.875t18.75 7.875h146.25q11 0 18.875-7.875t7.875-18.875v-146.5q0-11-7.875-18.75t-18.875-7.75h-146.25q-11 0-18.75 7.75t-7.75 18.75zM0 290.5v146.5q0 11 7.75 18.75t18.75 7.75h146.25q11 0 18.875-7.75t7.875-18.75v-146.5q0-11-7.875-18.875t-18.875-7.875h-146.25q-11 0-18.75 7.875t-7.75 18.875zM280.25 11.25v146.5q0 11 7.875 18.875t18.625 7.875h146.75q10.75 0 18.625-7.875t7.875-18.875v-146.5q0-11-7.75-18.75t-18.75-7.75h-146.75q-10.75 0-18.625 7.75t-7.875 18.75zM280.25 290.5v146.5q0 10.75 7.875 18.625t18.625 7.875h146.75q11 0 18.75-7.875t7.75-18.625v-146.5q0-11-7.875-18.875t-18.625-7.875h-146.75q-10.75 0-18.625 7.875t-7.875 18.875z" />
<glyph unicode="&#xf00c;" d="M0 143.75q0-4 4.25-6.875t10.5-2.875 10.625 2.875 4.375 6.875v160.75q0 4-4.375 6.75t-10.625 2.75-10.5-2.75-4.25-6.75v-160.75zM63.5 113.75q0-4 4.375-6.875t10.625-2.875 10.625 2.875 4.375 6.875v220.75q0 4-4.375 6.75t-10.625 2.75-10.625-2.75-4.375-6.75v-220.75zM135.5 93.75q0-8 5.875-13.875t13.875-5.875h244.5q8 0 13.75 5.875t5.75 13.875v260.25q0 8.5-5.75 14.25t-13.75 5.75h-244.5q-8.25 0-14-5.875t-5.75-14.125v-260.25zM461.25 113.75v220.75q0 4 4.375 6.75t10.375 2.75q6.25 0 10.75-2.75t4.5-6.75v-220.75q0-4-4.5-6.875t-10.75-2.875q-6 0-10.375 2.875t-4.375 6.875zM524.75 143.75v160.75q0 4 4.375 6.75t10.625 2.75 10.625-2.75 4.375-6.75v-160.75q0-4-4.375-6.875t-10.625-2.875-10.625 2.875-4.375 6.875z" horiz-adv-x="555" />
<glyph unicode="&#xf00d;" d="M0 144.5v160q0 4 4.5 6.625t10.75 2.625 10.5-2.625 4.25-6.625v-160q0-4-4.25-6.875t-10.5-2.875-10.75 2.875-4.5 6.875zM63.75 114.5v219.5q0 4 4.375 6.875t10.625 2.875q6 0 10.5-2.875t4.5-6.875v-219.5q0-4-4.5-6.75t-10.5-2.75q-6.25 0-10.625 2.75t-4.375 6.75zM135.75 94.75v259.25q0 8 5.75 13.75t13.75 5.75h244.5q8 0 13.875-5.75t5.875-13.75v-259.25q0-8-5.875-13.875t-13.875-5.875h-244.5q-8 0-13.75 5.875t-5.75 13.875zM180.5 119.75h194v209.25h-194v-209.25zM461.5 114.5v219.5q0 4 4.25 6.875t10.5 2.875 10.75-2.875 4.5-6.875v-219.5q0-4-4.5-6.75t-10.75-2.75-10.5 2.75-4.25 6.75zM525.25 144.5v160q0 4 4.25 6.625t10.5 2.625 10.5-2.625 4.25-6.625v-160q0-4-4.25-6.875t-10.5-2.875-10.5 2.875-4.25 6.875z" horiz-adv-x="555" />
<glyph unicode="&#xf00e;" d="M0 47.25q0-13.75 9.5-23.5t23.25-9.75h65q13.75 0 23.25 9.75t9.5 23.5v354q0 13.75-9.5 23.25t-23.25 9.5h-65q-13.75 0-23.25-9.5t-9.5-23.25v-354zM245.75 47.25q0-13.75 9.625-23.5t23.125-9.75h65.25q13.5 0 23.125 9.75t9.625 23.5v354q0 13.75-9.625 23.25t-23.125 9.5h-65.25q-13.5 0-23.125-9.5t-9.625-23.25v-354z" horiz-adv-x="377" />
<glyph unicode="&#xf00f;" d="M0 50.5v347q0 19.75 11.375 26.375t26.875-3.875l289-178.75q10.25-7.25 10.25-17.25 0-4.5-2.5-8.875t-5-6.375l-2.75-2-289-179q-15.5-10.25-26.875-3.625t-11.375 26.375z" horiz-adv-x="338" />
<glyph unicode="&#xf010;" d="M0 57.75v347.5q0 21 10.75 23.625t32.75-9.125l275-173.75v159.25q0 10.75 9.125 20t19.875 9.25h58q20.25 0 31.75-8.75t11.5-20.5v-347.5q0-11.75-11.5-20.5t-31.75-8.75h-58q-10.75 0-19.875 9.25t-9.125 20v144.75l-275-174q-22-10-32.75-1.875t-10.75 31.125z" horiz-adv-x="449" />
<glyph unicode="&#xf011;" d="M0 61.5v325q0 12.5 8.875 21.375t21.375 8.875h59.75q12.5 0 21.25-8.875t8.75-21.375v-139.25l264.25 163.75q15 9.75 25.625 3.5t10.625-25v-330.75q0-19-10.625-25.25t-25.625 3.75l-264.25 163.5v-139.25q0-12.5-8.875-21.375t-21.125-8.875h-59.75q-12.25 0-21.25 9t-9 21.25z" horiz-adv-x="421" />
<glyph unicode="&#xf012;" d="M0 50v347.75q0 19.75 11.25 26.5t27.25-3.75l273-169.25v146.5q0 19.75 11.25 26.5t27.25-3.75l277.5-172v146.25q0 13.25 9.25 22.625t22.5 9.375h62.75q13.25 0 22.5-9.375t9.25-22.625v-341.5q0-13.25-9.25-22.5t-22.5-9.25h-62.75q-13.25 0-22.5 9.25t-9.25 22.5v146.25l-277.5-172q-16-10.25-27.25-3.75t-11.25 26.25v146.75l-273-169.25q-16-10.25-27.25-3.75t-11.25 26.25z" horiz-adv-x="754" />
<glyph unicode="&#xf013;" d="M0 53.25v341.5q0 13.25 9.25 22.625t22.5 9.375h62.75q13.25 0 22.5-9.375t9.25-22.625v-146.25l277.75 172q15.5 10.5 26.875 3.75t11.375-26.5v-146.5l273.25 169.25q15.5 10.5 26.875 3.75t11.375-26.5v-347.75q0-19.75-11.375-26.25t-26.875 3.75l-273.25 169.25v-146.75q0-19.75-11.375-26.25t-26.875 3.75l-277.75 172v-146.25q0-13.25-9.25-22.625t-22.5-9.375h-62.75q-13.25 0-22.5 9.375t-9.25 22.625z" horiz-adv-x="754" />
<glyph unicode="&#xf014;" d="M0.125 173.5q-1.125 23 4.875 44.125t17.75 39.75 29.5 33.125 39.5 23q39.5 15 79.75 6.5 18.75 41.25 57 66.375t85 25.125q31.75 0 60.625-12.375t49.75-33.25 33.25-49.75 12.375-60.625q0-4.75-1-13.75 0.75 0 1.875 0.5t1.625 0.75q41 16 81.375-2.125t56.375-59.125q10-28.5 6-55.375t-22-49.5-45.25-33.125q-18-6.5-37-7h-152.75v86h34.75q9.5 0 12.625 5.5t-1.875 13.25l-87.5 141q-3.5 5-8.25 5-2.25 0-4.375-1.25t-3.125-2.5l-1-1.25-87.5-141q-5-7.75-1.625-13.25t12.875-5.5h34.25v-86l-114.75 0.25q-43.75 0-80.625 24.875t-52.875 66.875q-8.5 21.75-9.625 44.75z" horiz-adv-x="617" />
<glyph unicode="&#xf015;" d="M-0.125 185q1.375 28 12.125 52.75t31.875 45 48.625 31.25q33 14 79 7.5 20.25 40.5 58 65.25t84.25 24.75q42.25 0 77.75-21.125t55.75-56.5 20.25-76.125v-14.75h3.75q41.25 16.25 81.375-1.875t57.375-58.125q16.25-41.25-1.875-81.5t-58.125-57.5l-8.5-2.125t-8.25-2.125-6.875-1.5-7.375-1.125-6.5-0.375h-371q-43.25 0-79.125 24.875t-52.125 68.875q-11.75 26.5-10.375 54.5zM229.375 238.125q-3.125-4.875 2.125-10.375l67.25-112.25q3.75-4 7.5-4 1.75 0 3.625 1t2.875 2l1 1 71.5 112.25q3 6-0.125 10.625t-11.375 4.625h-26.25v52.25h-78.75v-52.25h-30q-6.25 0-9.375-4.875z" horiz-adv-x="618" />
<glyph unicode="&#xf016;" d="M0 224q0 49 19 93.375t51.125 76.5 76.5 51.125 93.375 19q48.75 0 93.25-19t76.625-51.125 51.125-76.5 19-93.375q0-48.75-19-93.25t-51.125-76.625-76.625-51.125-93.25-19q-49 0-93.375 19t-76.5 51.125-51.125 76.625-19 93.25zM45.25 224q0-25 6.75-50.75 18 48.75 52.75 84.25-0.5 1-1 3.125t-0.5 2.375h-2.75q-25 0-52.5-7-2.75-16.5-2.75-32zM55.5 286.75q23.75 4.5 45 4.5 1 0 2.75-0.125t2.75-0.125q5.25 10.5 15 16.75t21.75 6.25q14.25 0 26-9.25 46 23.5 99.25 24.5 2.5 5.75 5.5 9.5-37.5 49.25-96.25 69.75-43-14.75-75.125-46.75t-46.625-75zM69.25 130.75q21.5-39.5 58.625-65.875t82.625-33.375q43.5 25.25 70.25 65.75-10 11.5-10 26.5 0 17.5 13 29.75-17.75 32.5-45.5 57.125t-62.25 38.125q-12.5-17-33.25-17-9.75 0-19 5-43.25-45.25-54.5-106zM183.5 280q0.25-0.75 0.375-2.25t0.125-2.25q40.5-15.25 73.125-43.875t53.125-66.875q6 24.75 6 47.75 0 28.25-9.5 60h-0.75q-13.75 0-24.375 8t-14.875 20.5q-44.25-1.75-83.25-21zM223.75 418.5q42.75-24.5 73-65 4.5 1.25 9.25 1.25 15.75 0 27.375-10.75t13.125-26.25q46.5-15.25 82.75-46.75-16.25 64.25-68.875 106.25t-120.375 42q-2.5 0-5.125-0.125t-6-0.375-5.125-0.25zM257.5 30q24.75 2 51 11.75 0 1.5 0.5 5.875t0.5 6.875q0 11.5-2.25 28.5-0.5 0.25-1.75 0.25-19.5-29.75-48-53.25zM333.25 282.75q11-36.25 11-70.25 0-28.5-7-56.5 16-12.25 16-32.25 0-21.25-18.5-34.25 2.75-17.75 2.75-34 44.5 25.75 71.125 70.625t26.625 97.875v0.75q-38.75 47-95.25 65.75-3.5-4.75-6.75-7.75z" />
<glyph unicode="&#xf017;" d="M0 224q0 49 19 93.375t51.125 76.5 76.5 51.125 93.375 19q43.25 0 82.875-14.625t71.375-41.625q21.25-16 36.5-38.5 49.25-64.5 49.25-145.25 0-48.75-19-93.25t-51.125-76.625-76.625-51.125-93.25-19q-49 0-93.375 19t-76.5 51.125-51.125 76.625-19 93.25zM48 256q26 7 52.5 7h2.75q0-0.25 0.5-2.375t1-3.125q-35.5-36.25-52.75-84 5.75-22 17.25-43 11.25 61 54.5 106.25 8.75-5 19-5 20.75 0 33.25 17 34.5-13.5 62.25-38.125t45.5-57.125q-13-12.25-13-29.75 0-14.75 10-26.75-27.5-40.75-70-65.5 14.75-2.25 29.25-2.25 8.75 0 17.75 0.75 28.5 23.75 47.75 53.25h0.75l0.5-0.25q2.5-15.75 2.5-28.5l-0.75-12.75q16 6 29 13.75 0 16.25-2.75 34 18.5 13 18.5 34.25 0 20-16 32.25 7 28 7 56.5 0 34-11 70.25 3.75 3.25 6.5 7.75 56.75-18.75 95-65.25 0 22.75-5.5 46-37 31.75-82.75 46.5-1.5 15.5-13.125 26.25t-27.375 10.75q-4.75 0-9.25-1.25-30.5 40.75-73.25 65-22.5-2.25-45.75-9.75 58.25-21 95.75-70-3-3.75-5.5-9.5-53.25-1-99.25-24.5-11.75 9.25-26 9.25-12 0-21.75-6.25t-15-16.75q-1 0-2.75 0.125t-2.75 0.125q-21.25 0-45-4.5-4.75-14.25-7.5-30.75zM183.5 280q40.75 20 83.25 21 4.25-12.5 14.875-20.5t24.375-8h0.75q9.25-31 9.25-60 0-24.5-6-47.75-20 38-52.75 66.625t-73.25 44.125q0 0.75-0.125 2.25t-0.375 2.25z" />
<glyph unicode="&#xf019;" d="M0 224q0 49 19 93.375t51.125 76.5 76.625 51.125 93.25 19 93.25-19 76.625-51.125 51.125-76.5 19-93.375q0-48.75-19-93.25t-51.125-76.625-76.625-51.125-93.25-19-93.25 19-76.625 51.125-51.125 76.625-19 93.25zM80 335q7 1.25 9 0.25 1.25-0.75 1.875-1.25t0.75-1.25 0.125-1.75v-2.5q0.5-14.75 10.5-9.25 3.75 2.25 5.625 11t3.125 10.75q2.75 4.5 11.5 12.75 1 0.75 3.125 2.625t3.125 2.875 2.125 3 1.125 4.5q0.25 4.75-3.375 7.25t-8.875 3.25q-22.5-17.75-39.75-42.25zM122.75 146q1.5-9 6.125-15.25t10-9.5 14.125-5 15-2 16.5-0.5 15-0.5q8.5-0.5 11.5-2.625t5.5-9.875q1-2.75 3.25-8.625t3.625-10.25 2.125-8.625q1-5 1.75-14.5t1.25-12.75q2-12.5 5.75-16.75 1 0 2.875-0.125t2.875-0.125q30.25 0 61.5 10 3.75 2.25 9.75 7t7.5 5.75q1 0.5 3.25 1.5t3.5 2.125 2 3.375q1 1.5 0.625 3.5t-0.625 3-1.375 3-1.625 3.5q-1 2.5-1.125 4.75t0.375 3.875 2 3.5 2.75 3 3.5 3.25 3.5 3.375q6.75 6.75 16.75 25 10.25 18.5 10 27-3.5 0.25-12.875-1.625t-14.625-0.875q-12.75 2.25-26.5 16.5-11.25 11.75-10.5 27.5 0.25 3.25 0.625 4.25t2.375 2.25q2.5-2.75 10.25-7.875t10.5-9.125q1-1.25 2.625-3.625t2.375-3.5 2.375-2.875 3.625-3.25 4.625-5.25 4.375-5q4-2.5 8.875-1.125t8.875 4.625q2 1.75 3.375 4.25t1.75 4.25 1 5.125 0.875 4.625q0.75 2.75 3.125 6.5t3.125 6.25 0 16q-8.25 0-12-2-1-0.5-3.25-3.25t-5.25-2.5q-5.5 0.25-8.75 5t-3.75 10.25q2 1.5 5.125 2t5.25 0.5 6.5-0.25 5.625-0.25q9.25 0 20 4.5 4.25 2 8 2.375t7.625-1.125 6.625-3 7.25-4.75q1.25-1 3.375-2.875t3.75-3.375 3.625-2.75 3.75-1 3.25 2q1.75 2 2 6.125t-0.125 9.5-0.375 6.875l1.25 10.5q0.25 1.5 2.25 6-5.5 56.75-40.5 101.5t-87.5 63.75q-3.75-6-4.625-14.75t0.125-21.625 1-15.625q0-3.75-1.125-5.875t-4-4.375-4.375-4.25q-9.5-10.75-18.5-9-2.5 0.5-9.5 2.25t-10.25 2-8.75 0.25-9.75-2.125-8.5-6.125q-0.75-0.75-3-2.875t-3.125-3.125-2.25-2.875-2-3.75-0.625-4.125q0-0.75-0.375-4.5t-0.25-5.125 1.125-3.625 3.25-3.5q3-1.5 8.25-1.125t8 2.125q2 1.5 3.125 4.25t2 6.5 1.625 5.5q2.5 5 7.25 6.25t7.75-3q4.5-7-2-18-3.75-6-7-9t-9.5-5q-0.5-0.25-2.125-1t-3-1-2.875 0q-1.25 0.5-3.25 2.625t-3 2.375q-6 1.75-15.5-7-7-6.5-15.25-7.5-1-0.25-3.25-0.25h-3.75t-3.25-0.625-1.75-2 0.5-4.125q0.5-1.5 3.875-5.25t2.625-8.25q-1.5 0-5.5 0.125t-6.5 0-5.5-1-4.5-2.875q-2-3-4.375-11.25t-1.125-10.5q2.25-4 17.25-4 12-1 13.5 8 2.25 1 4.875 4t3.875 4q3.75 3 10.25 3.75 3.5 0.5 6.125 0.125t4.625-2.125 3-3 2.75-4.375 2.75-4.625q5-7.75 8.5-6.75 2 0.75 1.75 6.25 0 3.5-4 9.875t-3.5 11.375q2.75 0 4.125 0.25t3-2 2.25-3.375 1.75-3.875 1.625-3.75q2.75-7.25 5.25-10.5 0.25-0.25 2.5-2.375t3-3.625q0.75 1 4.25 6.75t5 9.25q4.25 10.25 9.25 14.75 5.25 4.75 18 4.75 11 0 10.75-5-0.25-2-3-4.75-1.5-1.5-11-5.25t-15.25-8-1.25-8.5q2.75-2.5 10.125-2t10.375-0.75q2-1 2.75-2.875t0.625-3.5-0.75-4.75-0.625-4.125v-3q-6-3.5-14.375-4.125t-22.125 0.625-14.25 1.25q-10.75 0.5-22.75 9.75-5.5 4.25-9.75 5.5t-12 1.75q-36.5 1.25-59.25-17.5-25.5-21.25-20-53zM143.5 375.25q3.25-1.75 7.625-0.5t9 3 8.5 2.875 6.125-1 1.75-8.375q-2-0.75-8.5-2.75t-11-3.75-8.625-5.375-4.375-8.125q0-2 0.625-3.5t2-2.5 2.875-1.75 3.875-0.875 4-0.375 4.5 0 4 0.25 3.75 0.375 2.875 0.375q14.75 2 25 9.25 23 17.25 26.25 30.5 1.5 6.25-2.25 9.375t-9.25 3.375-11.5 1.25-8.25 3.75q-1 1.25-1 10.75 0 1 0.25 1.25-33.25-11-45-17.5 6.5-4.75 4.5-9.5-0.5-1-4.75-3.75t-3-6.75z" />
<glyph unicode="&#xf01a;" d="M0 286.75q0 16 12.25 27.375t29.25 11.375h110l84-127.5 45.75 266h156.75q17.5 0 29.75-11.5t12.25-27.75-12.25-27.75-29.75-11.5h-87.25l-69.5-401.5-175.5 264h-64.25q-17 0-29.25 11.375t-12.25 27.375z" />
<glyph unicode="&#xf01b;" d="M0 224q0 49 19 93.375t51.125 76.5 76.5 51.125 93.375 19q48.75 0 93.25-19t76.625-51.125 51.125-76.5 19-93.375q0-48.75-19-93.25t-51.125-76.625-76.625-51.125-93.25-19q-49 0-93.375 19t-76.5 51.125-51.125 76.625-19 93.25zM45.25 224q0-39.5 15.375-75.625t41.5-62.25 62.25-41.625 75.625-15.5 75.75 15.5 62.375 41.625 41.625 62.25 15.5 75.625-15.5 75.625-41.625 62.25-62.375 41.625-75.75 15.5-75.625-15.5-62.25-41.625-41.5-62.25-15.375-75.625zM105.25 239.75q0 8 6 13.75t14.5 5.75h55l41.75-63.75 23.25 133.25h78.25q8.75 0 15-5.875t6.25-13.875-6.25-13.875-15-5.875h-43.5l-34.75-200.5-87.75 131.75h-32.25q-8.5 0-14.5 5.625t-6 13.625z" />
<glyph unicode="&#xf01d;" d="M2.875 440.125q6.375 6.875 23.375-0.125l543.75-218.75q10.75-4.25 14.875-10.5t0.75-12.625-13.375-11.625l-96.75-46.5-67.5-119.5q-9.25-14.5-24.125-15.875t-27.375 10.875l-13.25 13.5q-1.25 1.25-1.75 1.5l-29.75 30.25-73-34.25q-16.25-7.25-33.25-1t-24.75 22.5l-176.5 368.75q-7.75 16.5-1.375 23.375zM106.375 372.375q-1.375-1.875 12.125-13.875l194-173q13.5-12.25 34.125-16.125t35.625 2.625q15.25 6.5 15 18.125t-16 20.875l-257.5 154q-16 9.25-17.375 7.375z" horiz-adv-x="587" />
<glyph unicode="&#xf01e;" d="M0 224q0 48.75 19 93.25t51.125 76.625 76.625 51.125 93.25 19 93.25-19 76.625-51.125 51.125-76.625 19-93.25-19-93.25-51.125-76.625-76.625-51.125-93.25-19-93.25 19-76.625 51.125-51.125 76.625-19 93.25zM45.25 224q0-53 26.125-97.875t70.875-71 97.75-26.125 97.875 26.125 71.125 71 26.25 97.875q0 39.5-15.5 75.625t-41.625 62.25-62.375 41.625-75.75 15.5-75.625-15.5-62.25-41.625-41.5-62.25-15.375-75.625zM105.75 326.5q3.25 3.5 11.75 0.25l270.75-109.25q5.5-2 7.625-5t0.5-6.25-6.625-5.75l-48.25-23.25-33.75-59.5q-4.75-7.25-12.125-8t-13.625 5.5l-6.5 6.75q-0.75 0.75-1 0.75l-14.75 15-36.25-17q-8-3.5-16.5-0.375t-12.5 11.125l-88 183.5q-4 8-0.75 11.5zM157.5 293q-0.25-0.5 1.25-2.375t4.75-4.875l96.5-86q7-6 17.125-7.875t17.625 1.375q7.75 3.25 7.625 9t-8.125 10.5l-128.25 76.5q-4 2.25-6.125 3.25t-2.375 0.5z" />
<glyph unicode="&#xf022;" d="M1.5 275.125q-6 15.375 8 24.5t45 9.125h119l36.25 110q7.25 22.25 16.875 33.75t19.625 11v-372.75l-96.5-70q-25.25-18-42-18.625t-20.625 15.125 5.125 45.5l0.25 0.75 0.25 0.5 36 109.25-93.25 66.5-1.25 1.25-1.5 0.75q-25.25 18-31.25 33.375z" horiz-adv-x="247" />
<glyph unicode="&#xf024;" d="M1.5 268.25q-6.25 16 8.25 25.375t46.75 9.375h123.75l37.5 114 0.25 0.5q7.5 23 17.25 34.75t20.25 11.75v-86.25l-40.75-122.75h-128.5l104-74.25-10.75-33.5-29.25-88.5 105.25 75.25v-59l-99.75-71.25q-26.75-19.75-45-19.75-16.5 0-20.5 16.375t5.75 46.875l0.5 1.75 37.25 113-97 69.5-1.25 1.25-1.5 0.75q-26.25 18.75-32.5 34.75z" horiz-adv-x="256" />
<glyph unicode="&#xf025;" d="M1.125 269.75q2.625 4.25 10.125 4.25h35.25q8.75 40.25 30.5 75.375t52.375 60.375 70.125 39.75 82 14.5q48.75 0 93.125-19t76.625-51 51.25-76.375 19-93.125-19-93.25-51.25-76.75-76.625-51.375-93.125-19.125q-82.5 0-147.75 51-12.25 9.5-14.125 24.875t7.625 27.375q9.5 12.25 24.875 14.125t27.375-7.625q45.5-35 102-35 45 0 83 22.25t60.125 60.375 22.125 83.125q0 33.5-13.125 64.125t-35.25 52.75-52.75 35.25-64.125 13.125q-54.75 0-98.125-32.375t-59.625-83.375h22.25q7.5 0 10-4.25t-1.5-10.5l-69-113.5q-3-4-7-4-1.75 0-3.375 1t-2.375 2l-0.75 1-69.5 113.5q-4 6.25-1.375 10.5z" horiz-adv-x="522" />
<glyph unicode="&#xf028;" d="M0 316.5q0 52.75 37.625 90.125t90.625 37.375q41.25 0 75-24.25l-7.25-127.75q0.25-6.25 4.75-10.625t10.75-4.375h5.25q6.25 0 9.25-4.125t1.25-10.125l-29.25-88.25q-1.75-6-0.625-6.75t4.625 4.25l99.25 136.5q3.5 4.75 1.875 8.375t-7.875 3.625h-39.5q-6.25 0-9 4t-0.25 9.5l41.75 93.25q29.5 16.75 63.5 16.75 53 0 90.625-37.375t37.625-90.125q0-48.5-32.5-85l-175.5-206.75q-13-15.5-31.875-15.5t-32.125 15.5l-175.25 206.75q-32.75 36.5-32.75 85z" />
<glyph unicode="&#xf029;" d="M0.75 150.75q2.5 12.75 13.125 21.375t23.625 8.625h76.25l18.5 86.75h-69.5q-14.25 0-23.5 11-8.75 11.25-5.75 26 2.5 13 13 21.5t23.5 8.5h76.25l16.25 76.75q2.75 13 13.375 21.625t23.625 8.625q15 0 23.75-11t5.5-26l-14.75-70h85.75l16.25 76.75q2.75 13 13.25 21.625t23.5 8.625q15 0 23.75-11 9-10.5 5.75-26l-14.75-70h69.25q14.5 0 23.75-11 8.75-11.25 5.75-26-2.5-13-13-21.5t-23.5-8.5h-76.25l-18.75-86.75h69.5q14.5 0 23.75-11 8.75-11.25 5.75-26.25-2.75-13-13.125-21.5t-23.375-8.5h-76.75l-16-76.75q-2.75-13-13.25-21.5t-23.5-8.5q-14.5 0-23.75 10.75-8.75 11.25-5.75 26l15 70h-86l-16.5-76.75q-2.75-13-13.125-21.5t-23.375-8.5q-14.5 0-23.75 10.75-8.75 11.25-5.75 26l15 70h-69.5q-14.75 0-23.75 11.25-9 10.5-5.75 26zM181.5 180.75h85.75l18.5 86.75h-86z" horiz-adv-x="467" />
<glyph unicode="&#xf02a;" d="M0 239.25q0 3.5 1.75 7t3.25 5l1.75 1.75 193 140.25q10.5 8 18.125 2.75t7.625-20.5v-57l13.75-1q49.25-4.25 92.875-27.75t74.5-60 48.375-84.75 16.75-100.5q-31 54.75-82.625 89.5t-113.875 40q-25.25 2.25-49.75-0.75v-70.25q0-15.25-7.625-20.5t-18.125 2.75l-193 140.5q-6.75 5.75-6.75 13.5z" horiz-adv-x="472" />
<glyph unicode="&#xf02b;" d="M0.875 182q2.875 4.75 10.875 4.75h32.25v176q0 16.25 11.25 27.625t27.5 11.375h245.75l-53-78.5h-153.75v-136.5h32.5q8 0 10.75-4.75t-1.5-11.25l-73.5-120q-3-4-7.25-4-1.75 0-3.5 1t-2.75 2l-0.75 1-73.5 120q-4.25 6.5-1.375 11.25zM145.25 46.75l52.75 78.25h153.75v136.75h-32.5q-8 0-10.75 4.75t1.5 11l73.5 120q2.75 4.25 7 4.25 1.75 0 3.625-1t2.875-2l0.75-1.25 73.5-120q4.25-6.25 1.375-11t-10.875-4.75h-32.25v-176q0-16.25-11.375-27.625t-27.625-11.375h-245.25z" horiz-adv-x="474" />
<glyph unicode="&#xf02c;" d="M0 228.75q0 17 12.125 29t29.125 12h176.25l-56.75 56.75q-12 12-12 29t12 29.25q12.25 12 29.375 12t29.125-12l126.5-127q12.25-12 12.25-29t-12.25-29l-124-124.25q-12-12-29.125-12t-29.125 12-12 29 12 29.25l54 53.75h-176.25q-17 0-29.125 12.125t-12.125 29.125zM298 25.25q0 17 12.125 29.125t29.125 12.125h36.75q9 0 15.375 6.25t6.375 15.25v272.5q0 8.75-6.375 15t-15.375 6.25h-36.75q-17 0-29.125 12.125t-12.125 29.125 12.125 29 29.125 12h36.75q43.25 0 73.625-30.25t30.375-73.25v-272.5q0-43.25-30.5-73.625t-73.5-30.375h-36.75q-17 0-29.125 12.125t-12.125 29.125z" />
<glyph unicode="&#xf02d;" d="M0 88q0-43 30.375-73.5t73.375-30.5h37q17 0 29.125 12.125t12.125 29.125-12.125 29.125-29.125 12.125h-37q-8.75 0-15.125 6.25t-6.375 15.25v272.5q0 8.75 6.375 15t15.125 6.25h37q17 0 29.125 12.125t12.125 29.125-12.125 29-29.125 12h-37q-43 0-73.375-30.25t-30.375-73.25v-272.5zM122 217q0 17 12.125 29t29.125 12h176.25l-56.25 56.75q-12.25 12-12.25 29.125t12.25 29.125q12 12 29 12t29-12l126.75-127q12-12 12-29t-12-29l-124.25-124.25q-12-12-29-12t-29.25 12q-12 12-12 29t12.25 29.25l53.75 53.75h-176.25q-16.75 0-29 12.25t-12.25 29z" />
<glyph unicode="&#xf02e;" d="M0 88v37q0 17 12.125 29t29.125 12 29-12 12-29v-37q0-9 6.375-15.25t15.125-6.25h272.5q8.75 0 15.125 6.25t6.375 15.25v37q0 17 12 29t29 12 29.125-12 12.125-29v-37q0-43-30.375-73.5t-73.375-30.5h-272.5q-43 0-73.375 30.5t-30.375 73.5zM79.25 271.75q0 17 12.25 29 12 12 29 12t29-12l54-54v176.25q0 17 12 29t29 12 29.125-12 12.125-29v-176.25l56.5 56.5q12 12 29 12t29-12q12.25-12 12.25-29.125t-12.25-29.125l-126.5-126.5q-12.5-12.5-29.25-12.5-16.5 0-29 12.5l-124 124q-12.25 12.25-12.25 29.25z" />
<glyph unicode="&#xf02f;" d="M0 88v37q0 17 12.125 29t29.125 12 29-12 12-29v-37q0-9 6.375-15.25t15.375-6.25h272.25q8.75 0 15.125 6.25t6.375 15.25v37q0 17 12 29t29 12 29.125-12 12.125-29v-37q0-43-30.375-73.5t-73.375-30.5h-272.25q-43 0-73.5 30.375t-30.5 73.625zM79.5 296.375q0 17.125 12 29.125l126.5 126.5q12 12 29.25 12 17 0 29-12l124.25-124q12-12.25 12-29.25t-12-29q-12.25-12-29.25-12t-29 12l-54 54v-176.5q0-17-12-29.125t-29-12.125q-16.75 0-29 12.125t-12.25 29.125v176.5l-56.5-56.5q-12-12-29-12t-29 12-12 29.125z" />
<glyph unicode="&#xf031;" d="M0 287.25q0 35.75 14 68.75 12.75 31.25 37.75 56.5 24.25 24.25 56.25 37.5 32.5 14 68.75 14 37 0 69-14 31.75-13.25 56.25-37.5 25-25 38-56.5 14-33 14-68.75t-14-68.75q-9-20.25-18.5-33.5l-117-177.75q-11.5-17.5-27.5-17.5t-27.75 17.5l-116.75 177.75q-11.5 16-18.5 33.5-14 33-14 68.75zM111.25 287.25q0-27.5 19-46.5 19.5-19.5 46.5-19.5 27.75 0 46.75 19.5 19.25 18.75 19.25 46.5 0 27.25-19.25 46.5-19 19.5-46.75 19.5-27 0-46.5-19.5-19-19.5-19-46.5z" horiz-adv-x="354" />
<glyph unicode="&#xf032;" d="M0 127.25v269.25q0 18.5 13.375 31.625t31.875 13.125h450q18.5 0 31.625-13.125t13.125-31.625v-269.25q0-18.5-13.125-31.875t-31.625-13.375h-130q4.25-40.25 14.75-46.5 7.25-4.25 13.625-6.875t9.125-3.125l2.75-0.5v-18h-270v18q9 0.75 25.25 10.5 10.75 6.75 15 46.5h-130.5q-18.5 0-31.875 13.375t-13.375 31.875z" horiz-adv-x="540" />
<glyph unicode="&#xf033;" d="M0 29v390q0 18.5 13.125 31.75t31.625 13.25h269.25q18.5 0 31.625-13.25t13.125-31.75v-390q0-18.5-13.125-31.75t-31.625-13.25h-269.25q-18.5 0-31.625 13.25t-13.125 31.75zM157.75 63.75q0-9.5 6.625-16t15.875-6.5 15.75 6.625 6.5 15.875-6.5 15.75-15.75 6.5-15.875-6.5-6.625-15.75z" horiz-adv-x="359" />
<glyph unicode="&#xf034;" d="M0 35.5v377.25q0 21.25 14.75 36.25t35.75 15h184q21 0 35.875-15t14.875-36.25v-377.25q0-21.25-14.875-36.375t-35.875-15.125h-184q-21 0-35.75 15t-14.75 36.5zM120 66.75q0-9.5 6.625-16.125t15.875-6.625 16 6.75 6.75 16-6.75 15.75-16 6.5-15.875-6.5-6.625-15.75z" horiz-adv-x="285" />
<glyph unicode="&#xf03a;" d="M0 128.75v191.25q0 31.75 22.25 54.375t53.25 22.625h281.25q30.25 0 52-21.5t23.25-52l106.5 68q13 8.75 22.375 3.25t9.375-22.25v-296q0-16.75-9.375-22.5t-22.375 3l-106.5 68.25q-1.25-30.75-23.125-52.125t-52.125-21.375h-281.25q-31.25 0-53.375 22.625t-22.125 54.375zM325.75 309.5q0-9.25 6.625-15.875t15.875-6.625 15.875 6.625 6.625 15.875-6.625 15.875-15.875 6.625-15.875-6.625-6.625-15.875z" horiz-adv-x="571" />
<glyph unicode="&#xf03b;" d="M0 62v89h117.5q14 0 26.25 5 16.25-43.25 50.5-74.5-36.25-19.5-76.75-19.5h-117.5zM0 297v88.75h117.5q33 0 63-12.875t51.625-34.5 34.5-51.625 12.875-63q0-30 21.375-51.375t51.625-21.375h43.25q0.75 0 2-0.125t2-0.125v27q0 8 4.75 10.875t11.25-1.375l120-73.75q4.25-2.75 4.25-7 0-1.75-1-3.625t-2-2.625l-1.25-1-120-73.5q-6.5-4.25-11.25-1.5t-4.75 10.75v27.5q-0.75 0-2-0.25t-2-0.25h-43.25q-33 0-63 12.875t-51.625 34.5-34.5 51.5-12.875 62.875q0 30.25-21.375 51.75t-51.625 21.5h-117.5zM275.5 366.5q35 19.25 77 19.25h43.25q0.75 0 2-0.125t2-0.125v27.5q0 8 4.75 10.875t11.25-1.375l120-74q4.25-3 4.25-7 0-2-1-3.75t-2-2.5l-1.25-0.75-120-73.75q-6.5-4.25-11.25-1.5t-4.75 10.75v27.25q-0.75 0-2-0.125t-2-0.125h-43.25q-13.25 0-26.25-5.25-16.5 43.75-50.75 74.75z" horiz-adv-x="540" />
<glyph unicode="&#xf03d;" d="M0 290.5q0 55.25 35 102.125t95 74.125 130.75 27.25q53.25 0 101.5-16.125t83-43.375 55.375-64.875 20.625-79.125q0-33.25-13.125-64.25t-37.125-56.125-56-44-71.875-29.125-82.375-10.25q-53 0-99.25 15.25l-59.5-41.5q-33.25-21.25-46.875-12.375t-5.625 49.625l12 62q-29.25 27-45.375 60.625t-16.125 70.125zM332.75 50.75q60.5 12 110.25 42.25t81.125 74.375 38.375 95.375q45.5-18.25 72.875-52.5t27.375-75.25q0-25.25-11.25-49t-31.5-42.75l8.75-43.75q5-28.5-4.375-34.75t-32.875 8.75l-41.75 29.5q-32.5-11-69.75-11-44.75 0-83.5 15.75t-63.75 43z" horiz-adv-x="663" />
<glyph unicode="&#xf03f;" d="M0 270.25q0.5 11 7.5 21.25 7.75 11.75 20.125 17.875t24.875 5.125q1.5 0 4.25-0.5 21-2 38.5 3.5 47.25 15.25 122.25 90.25 27.75 27.75 64.875 37.5t74.125 0 64.75-37.5 37.5-64.875 0-74.125-37.5-64.75q-20.75-20.75-36.75-39.25t-26-32.375-16.875-26.5-9.875-21.125-4.25-17-1-13.5 0.75-10.75q0.5-3 0.5-4.5 1-12.5-5.25-25t-17.75-20.25q-10.25-6.75-21.25-7.375t-23.75 3.125q-0.25 0-5.375 1.25t-10.375 2.75-14.75 5.25-19.125 8.25-22.625 12.25-26 17-28.875 22.625-31.375 28.875q-14 14-26.125 28t-21 26.25-16.25 23.75-12.5 21.625-8.875 18.5-6.25 15.75-3.75 12-2.25 8.625-1 4.25q-3.75 12.75-3.25 23.75zM50.25 236.75q2.5-15.25 12-34.375t26.875-42.125 39.375-45q45.25-45 87.25-66.5t56.5-6.75q10.75 11.5 1 39.125t-36 61.625q-4-5.5-7.25-8.75-17-16.75-41.25-16.75t-41.25 16.75q-17 17-17 41.5t17 41.5q3.25 2.75 8.5 6.75-34 26.25-61.5 36.125t-39-0.875q-7.75-7-5.25-22.25z" horiz-adv-x="464" />
<glyph unicode="&#xf040;" d="M0 29v390q0 18.5 13.375 31.75t31.875 13.25h60v-90h270v90h60q18.5 0 31.625-13.25t13.125-31.75v-390q0-18.5-13.125-31.75t-31.625-13.25h-60v90h-270v-90h-60q-18.5 0-31.875 13.25t-13.375 31.75zM37.75 51.5v-30h30v30h-30zM37.75 96.75h30v30h-30v-30zM37.75 171.5h30v30h-30v-30zM37.75 246.75h30v30h-30v-30zM37.75 321.5h30v30h-30v-30zM37.75 396.75h30v30h-30v-30zM105.25 149h270v150h-270v-150zM412.25 51.5v-30h30v30h-30zM412.25 96.75h30v30h-30v-30zM412.25 171.5h30v30h-30v-30zM412.25 246.75h30v30h-30v-30zM412.25 321.5h30v30h-30v-30zM412.25 396.75h30v30h-30v-30z" />
<glyph unicode="&#xf044;" d="M0 118.625q0-16.125 11.5-27.875l92-92q10-10 23.75-11.25t25.25 6.25l-49 49.25 21 21 49.75-50 21.25 21.25-50 49.75 21 21 49.75-49.5 21.25 20.75-49.75 50 20.75 20.75 50-49.5 20 20-50 49.5 21.25 21.25 50-49.75 20.75 21-49.75 50 21.25 21 49.75-50 21 21.25-50 49.75 21.25 21 49.75-50 21 21.25-49.5 50 20.75 20.75 50-49.75 21.25 21.25-50 49.75 21 21 49-48.75q6.75 11.25 5.25 24.75t-11 23l-92 92.25q-11.75 11.5-27.875 11.5t-27.875-11.75l-302-302.25q-11.75-11.75-11.75-27.875z" horiz-adv-x="473" />
<glyph unicode="&#xf045;" d="M0 65.5l69.5 69.5 24.25-24.25 112.5 112.5q-15.5 22.75-13 50.875t22.5 48.375q20 20 48.125 22.375t50.875-13.375l112.75 113-24.25 24.25 69.25 69.25 69.5-69.25-69.5-69.5-24.25 24.25-72.75-72.75q34 8 62.75 8 51.75 0 99.25-19.75t84-56.25q6.5-6.5 6.5-15.75t-6.5-15.75-15.75-6.5-15.75 6.5q-30.5 30.5-69.625 46.625t-82.125 16.125q-49.5 0-93.75-21.5 7.5-20.25 2.625-42.5t-20.875-38.25q-16.25-16-38.25-20.875t-42.25 2.625q-19.25-40-21.5-84.125t13.75-86.5 48.5-74.875q6.5-6.5 6.5-15.625t-6.5-15.625q-6.75-6.75-15.75-6.75-8.5 0-15.25 6.75-49.25 49-66.75 114.875t-1 131.125l-73.25-73 24.25-24.25-69.25-69.5zM41.75 65.5l27.75-27.75 27.25 27.75-27.25 27.5zM445.25 468.75l27.25-27.75 27.5 27.75-27.5 27.25z" horiz-adv-x="628" />
<glyph unicode="&#xf047;" d="M0 419.25q0 9.25 6.5 15.75 6.5 6.25 16 6.25t16-6.25l406.75-401q6.5-6.25 6.5-15.5t-6.5-15.5q-6.25-6.5-15.75-6.5t-16 6.5l-407 400.5q-6.5 6.5-6.5 15.75zM60.75 195.5v54.25q0 9.25 6.625 15.75t16.125 6.5q9.25 0 15.875-6.5t6.625-15.75v-54.25q0-45.5 32.875-77.875t79.125-32.375q30.25 0 55.25 14.25l32.5-32.25q-29-19-64-24.5v-21.75h70q9.25 0 15.875-6.5t6.625-15.5q0-9.25-6.625-15.75t-15.875-6.5h-185.25q-9.25 0-15.875 6.5t-6.625 15.75q0 9 6.625 15.5t15.875 6.5h70v21.5q-37.75 5-68.875 26.5t-49 54.875-17.875 71.625zM134.75 198v37.5l115-113q-15.75-6.5-31.75-6.5-34.5 0-58.875 24t-24.375 58zM134.75 381.75v7.75q0 34 24.375 58t58.875 24 58.875-24 24.375-58v-171.75zM330 189.5q0 1 0.125 3t0.125 3v54.25q0 9.25 6.5 15.75t15.75 6.5q9.5 0 16.125-6.5t6.625-15.75v-54.25q0-21.75-6.75-44z" horiz-adv-x="452" />
<glyph unicode="&#xf048;" d="M0 195.5v54.25q0 9.25 6.5 15.75t15.75 6.5 15.875-6.5 6.625-15.75v-54.25q0-45.5 33-77.875t79.5-32.375q46.25 0 79.125 32.375t32.875 77.875v54.25q0 9.25 6.625 15.75t15.875 6.5 15.875-6.5 6.625-15.75v-54.25q0-57.75-38.375-100.875t-95.375-51.875v-21.75h70q9.25 0 16-6.5t6.75-15.5q0-9.25-6.625-15.75t-16.125-6.5h-185q-9.25 0-15.75 6.5t-6.5 15.75q0 9 6.5 15.5t15.75 6.5h70.25v21.5q-37.75 5-68.875 26.5t-49 54.875-17.875 71.625zM74 198v191.5q0 34 24.375 58t58.875 24q34.25 0 58.5-24t24.25-58v-191.5q0-34-24.25-58t-58.5-24q-34.5 0-58.875 24t-24.375 58z" horiz-adv-x="315" />
<glyph unicode="&#xf04a;" d="M0 29v390q0 18.5 13.125 31.75t31.625 13.25h182q1.75 0 3-0.25h0.25q19.5-1.5 31.25-13.25l130.5-125.5q5.5-6 8.25-12.5 1-2.5 1.25-3.25 0.25-0.5 1.125-2.5t1.125-3.25q1.25-5.75 1.25-10.5v-264q0-18.5-13.125-31.75t-31.625-13.25h-315.25q-18.5 0-31.625 13.25t-13.125 31.75zM44.75 29h315.25v238.25h-68q-37.25 0-63.625 26.375t-26.375 63.625v61.75h-157.25v-390zM247.25 357.25q0-18.5 13.125-31.625t31.625-13.125h60.5l-105.25 99.5v-54.75z" horiz-adv-x="405" />
<glyph unicode="&#xf04f;" d="M0 224q0 48.75 19 93.25t51.125 76.625 76.625 51.125 93.25 19 93.25-19 76.625-51.125 51.125-76.625 19-93.25-19-93.25-51.125-76.625-76.625-51.125-93.25-19-93.25 19-76.625 51.125-51.125 76.625-19 93.25zM93.5 224.5q0-30 11.5-57.125t31-46.875 46.5-31.375 57-11.625q40 0 73.875 19.625t53.5 53.5 19.625 73.875q0 39.75-19.625 73.375t-53.5 53.25-73.875 19.625q-30 0-57-11.625t-46.5-31.25-31-46.625-11.5-56.75zM117.75 218q3.25 0 8.75-0.375t8.25-0.375q53.5 0 110 20 3-8.25 7.5-17.25-31.5-11-57.75-31t-44.25-47.5q-31.25 32.25-32.5 76.5zM118.5 242.75q4.75 28.75 22.125 52.625t43.125 37.375q30.75-36.75 50.25-73-46.75-17-99.25-17h-16.25zM168.25 124.5q35 53.25 92 72 14.25-42.75 18-88.5-17.25-6.25-38.75-6.25-37 0-71.25 22.75zM208 341.75q18.5 4.75 31.5 4.75 49 0 84.75-34.5-30.75-27-67.75-43.25-19.25 36.25-48.5 73zM267.5 246q37.25 17 73 47 21.75-32.5 21.75-68.5-28.25 6.5-46.75 6.5-15.5 0-39.75-4.5-1.25 3-4 9.75t-4.25 9.75zM283.75 203q15.25 2.5 31.75 2.5 21.5 0 44.25-5.5-5.75-26-20.75-47.125t-37.25-33.875q-6 48.25-18 84z" />
<glyph unicode="&#xf050;" d="M0 224.75q0 48.5 18.875 92.75t50.875 76.375 76.375 51.125 93.125 19q49 0 93.625-19t76.875-51.125 51.25-76.375 19-92.75q0-49-19-93.5t-51.25-76.75-76.875-51.375-93.625-19.125-93.25 19.125-76.25 51.375-50.875 76.75-18.875 93.5zM40 214.5q1-35.25 14.875-67.5t38.375-58q29.5 45 72.375 77.75t94.375 50.75q-5.75 11.25-12 28-92-32.5-180-32.5-4.25 0-13.5 0.75t-14.5 0.75zM41.5 254.5h26.5q84.75 0 162.25 28-31 58.5-82.5 119.5-42.25-22.5-70.375-61.375t-35.875-86.125zM122.5 61q55.75-37.25 116.75-37.25 33.75 0 63.5 10.75-6.5 73.5-29.5 144.5-46.25-15.25-84.625-45.5t-66.125-72.5zM187.75 416.75q46.5-57.75 79.75-119.5 60.5 27 110.5 70.75-27.75 27-63.375 41.5t-75.375 14.5q-23 0-51.5-7.25zM285.25 260q2-5.25 6.375-16.25t6.625-16q39.25 7.5 65.25 7.5 30 0 76.5-10.5 0 58-35.5 112.25-56.75-47.5-119.25-77zM311.75 189.25q19.75-60.25 29.5-137.25 36.25 21 61 55.75t33.5 77.25q-36.75 8.75-72.25 8.75-27.25 0-51.75-4.5z" />
<glyph unicode="&#xf051;" d="M0 224q0 48.75 19 93.25t51.25 76.625 76.625 51.125 93.125 19 93.25-19 76.625-51.125 51.125-76.625 19-93.25-19-93.25-51.125-76.625-76.625-51.125-93.25-19-93.125 19-76.625 51.125-51.25 76.625-19 93.25zM179.75 224h26.75v-129.5h53.5v129.5h36l4.5 44.75h-40.25v22.5q0 10 3 13.875t14.75 3.875h22.25v44.75h-35.75q-31.25 0-44.625-14.75t-13.375-43.5v-26.75h-26.75v-44.75z" />
<glyph unicode="&#xf052;" d="M0 224h49.75v-240h99v240h66.5l8.75 82.75h-74.75v41.25q0 9.5 0.875 14.625t4 10 9.875 6.75 18 1.875h41.5v82.75h-66.25q-57.5 0-82.5-27.25t-25-80.25v-49.75h-49.75v-82.75z" horiz-adv-x="224" />
<glyph unicode="&#xf053;" d="M0 224q0 48.75 19 93.25t51.125 76.625 76.625 51.125 93.25 19 93.125-19 76.625-51.125 51.25-76.625 19-93.25-19-93.25-51.25-76.625-76.625-51.125-93.125-19-93.25 19-76.625 51.125-51.125 76.625-19 93.25zM94 123q0-16 9.625-27.125t24.125-14.625q13.25-3.75 30-3.75 62.75 0 62.75 52.5 0 12.75-6.75 21.5t-17.75 12.5q-0.75 0.25-8.625 2.5t-12.125 3.25q-24.75 6.25-24.75 17.75 0 12.25 13.75 14.5 21.5 4.25 34.25 19.875t12.75 37.625q0 6.25-3 14.5 12 3.25 13.75 3.75v35.25q-21.75-8.25-37.75-8.25-14.25 8.25-31 8.25-24.25 0-40.75-16.125t-16.5-40.125q0-14.5 8.375-28.875t20.375-18.625v-0.75q-10.5-5-10.5-24 0-14.5 11.5-21.5v-1q-31.75-10.75-31.75-39zM129.5 125q0 18 27.25 18 29 0 29-17.25 0-18.5-26.25-18.5-30 0-30 17.75zM133.25 256.5q0 25.25 21.25 25.25 10 0 15.5-7.125t5.5-17.875q0-23.75-21-23.75-21.25 0-21.25 23.5zM234.25 363q0-10.25 7-17.75t16.75-7.5 16.75 7.625 7 17.625q0 10.25-6.875 17.875t-16.875 7.625-16.875-7.5-6.875-18zM238.5 160h38.75q-0.75 11.25-0.75 25.25v104.5q0 11.75 0.75 21.5h-38.75q1-9.5 1-22.25v-105.75q0-12.75-1-23.25zM293.5 278.5l10.25 0.75h3.5q1.5-0.25 3-0.25v-0.5h-0.5v-61.25q0-21 4-33.75 5.25-16.75 19-22.25 8.25-3.5 18.75-3.5 17.5 0 30.25 7v34q-8.75-6-19.25-6-14.75 0-14.75 23v63.25h14.5q4.25 0 7.5-0.25t7.5-0.25v32.75h-29.5q0 23 0.75 28.5h-39.25q1-6 1-15.25v-13.25h-16.75v-32.75z" />
<glyph unicode="&#xf055;" d="M0 201.25q0-60 18-95.75 19.25-38 59.75-56.25 41-19.25 83.75-23.75 38.5-4.5 83-4.5 19.25 0 48.25 1.5 24.25 1.5 51.625 6.625t47.125 13.375q22.5 9.5 41.5 25.625t29.5 37.375q17.5 35.75 17.5 95.75 0 68.5-39.25 114.5 7.75 23.25 7.75 48.75 0 33.75-14.5 62.75-29.75 0-53.125-10.5t-55.375-35.5q-39.25 9.25-81 9.25-45.5 0-89-10-32.75 25.75-56.125 36.25t-53.125 10.5q-14.75-28.75-14.75-62.75 0-25.75 7.75-49.25-39.25-46-39.25-114zM64.5 150.5q0 35.5 20.375 59.25t53.625 23.75q13.25 0 56.25-6.25 22-3.25 45.25-3.25t45.5 3.25q43.75 6.25 56.25 6.25 33.25 0 53.5-23.75t20.25-59.25q0-25.25-9.25-44.5-9.25-18.5-23.125-29.375t-35.375-17.375q-35.5-10.75-83.5-10.75h-48.5q-23.75 0-43 2.25-20.5 2-41.25 8.75t-34.25 17q-14.75 11.5-23.75 30.625t-9 43.375zM110.75 150.5q0-11.75 3.75-23.75 3.75-13 12.875-22.375t20.375-9.375q12 0 21 9.75 15.75 18.25 15.75 45.75 0 11.5-3.25 23.5-3.75 13-12.875 22.375t-20.625 9.375q-12 0-21-10-16-17.25-16-45.25zM295.5 150.5q0-11.75 3.75-23.75 3.75-13 12.75-22.375t20.25-9.375q12.25 0 21.25 9.75 15.75 18.25 15.75 45.75 0 10.75-3.5 23.5-3.75 13-12.875 22.375t-20.625 9.375q-12 0-20.5-10-16.25-17.25-16.25-45.25z" />
<glyph unicode="&#xf056;" d="M0 224q0-66.25 32.25-120.25 32.25-55.75 87.5-87.75t120.25-32q65.25 0 120.75 32 55.5 32.25 87.375 87.625t31.875 120.375q0 66-32 120.75-32.25 55.5-87.625 87.375t-120.375 31.875q-66.25 0-120.25-32.25-55.75-32.25-87.75-87.5t-32-120.25zM40 224q0 40 15.75 77.25t43 64.25q27.25 27.25 64.25 42.875t77 15.625 77.25-15.625 64.5-42.875q27-27 42.625-64.25t15.625-77.25q0-43-17.625-82t-49.5-67.375-72.875-41.125v70.5q0 26.25-21.5 41 52.75 4.75 77.125 26.75t24.375 69.75q0 37-22.75 62.25 4.5 13.5 4.5 26 0 18.5-8.5 34-16.75 0-30-5.5t-32.5-19q-23.25 5.25-48 5.25-28.25 0-52.75-5.75-18.75 13.75-32.375 19.375t-30.875 5.625q-8.25-15.75-8.25-34 0-13 4.25-26.25-22.75-24.5-22.75-62 0-47.75 24.25-69.5t77.75-26.75q-14.25-9.5-19.75-27.75-12.25-4.25-25.5-4.25-10 0-17.25 4.5-2.25 1.25-4.125 2.625t-3.875 3.375-3.25 3.125-3.25 3.875-2.625 3.5-3 4-2.625 3.5q-11.75 15.5-28 15.5-8.75 0-8.75-3.75 0-1.5 4.25-5 8-7 8.5-7.5 6-4.75 6.75-6 7.25-9 11-19.75 14-31.25 48-31.25 5.5 0 21.5 2.5v-53q-41 12.75-72.875 41.125t-49.5 67.375-17.625 82z" />
<glyph unicode="&#xf057;" d="M0 224q0 48.75 19 93.25t51.125 76.625 76.625 51.125 93.25 19 93.25-19 76.625-51.125 51.125-76.625 19-93.25-19-93.25-51.125-76.625-76.625-51.125-93.25-19-93.25 19-76.625 51.125-51.125 76.625-19 93.25zM97.25 122q0-2.5 2.25-4 3.25-2.5 13.75-8 37.25-19 78.25-19 51.5 0 93 26.25 20 12.75 35.5 30.625t24.625 37.25 13.625 38.875 4.25 37.75v5.5q18 13 28 29.75 1 1.5 1 2.75 0 2-1.625 3.625t-3.625 1.625l-3.75-1.25q-9.75-4-11.25-4.25 4.25 5 8.375 12.5t4.125 11q0 1.75-1.625 3.25t-3.625 1.5q-1 0-2.5-0.5-18.5-10-32.75-13.25-18.5 18-44.5 18-26.25 0-44.75-18.5t-18.5-44.75q0-3.25 0.5-7.75-53.5 5-92.75 40.5-7 6.75-17.5 18-1.75 2-4.25 2-2.75 0-3.75-2.5-9-12.5-9-32 0-22.5 14.75-40-0.5 0-5 2-3.5 1.75-5.25 1.75-2.5 0-4.25-1.5t-1.75-4q0-16.5 8.25-30.875t22.25-23.125h-0.75q-0.5 0.25-1.25 0.25-0.75 0.25-2 0.25-2 0-3.5-1.375t-1.5-3.375q0-0.25 0.5-1.75 5-15.75 17.125-27t28.375-15.25q-26.5-16.5-58.75-16.5-0.75 0-7.25 0.5-1.75 0-4 0.125t-2.75 0.125q-1.75 0-3.25-1.625t-1.5-3.625z" />
<glyph unicode="&#xf058;" d="M0 79.75q0-3.75 3.75-6.75 6.25-4.25 22.25-12.5 61-31.5 128-31.5 83.5 0 151.75 43 32.5 20.5 57.75 49.375t40.125 60.25 22.25 62.875 6.875 61.25v8.75q29.25 21 45.75 48 1.5 3 1.5 4.5 0 3.25-2.5 5.75t-5.75 2.5q-1.75 0-6-2-3-1-7.375-2.5t-7.5-2.625-4.125-1.375q6.5 7.25 13.5 19.625t7 18.125q0 3.25-2.5 5.625t-6 2.375q-2 0-4-1.25-28.5-15.25-53.25-20.75-30.25 28.75-72.25 28.75-43 0-73.25-30t-30.25-72.5q0-7.5 1-12.25-42.25 3.5-81.5 20.25t-70.5 45q-7.25 7-28 29.25-3 3-7 3-3 0-6.25-4-6.5-9.75-10.25-23.875t-3.75-27.625q0-37.25 23.25-65l-7.25 3.5q-6.25 2.75-9.25 2.75-4.25 0-7.125-2.5t-2.875-6.5q0-26.25 13.5-49.75t36.5-37.5l-3 0.5q-0.5 0-1.375 0.25t-1.375 0.375-0.75 0.125q-3.25 0-5.625-2.5t-2.375-5.5q0-0.25 0.5-2.75 8.5-26 28.25-44.125t46.25-24.375q-43.5-26.75-96-26.75-3.5 0-11.25 0.75-10.5 0.5-11.5 0.5-3.25 0-5.625-2.5t-2.375-5.75z" />
<glyph unicode="&#xf059;" d="M0 224q0 48.75 19 93.25t51.125 76.625 76.625 51.125 93.25 19 93.25-19 76.625-51.125 51.125-76.625 19-93.25-19-93.25-51.125-76.625-76.625-51.125-93.25-19q-49 0-94.25 19.25h0.5q54.5 0 87 26t32.5 62q0 23.75-12.5 40.75-10.25 13.25-26.5 26-9 7-12.25 10-12.75 10.75-12.75 21.25 0 13 16.75 27.5 4.5 4.25 14 13.75 17 18 17 47.5 0 19.25-8.375 36.625t-23.375 26.625h28.5l29 16.5h-93.25q-19 0-39.75-4.25-30-6.5-50.125-30.125t-20.125-53.375q0-31.25 22.625-52.25t54.625-21q3.25 0 14.75 1-0.25-1.25-1.625-4.875t-1.625-4.125q-1.25-3.75-1.25-9.25 0-14.25 13.75-31.75-15.75-0.25-32-2.75-42.25-7-64-23-11.25-8.25-18.5-20.125t-9.25-24.125q-49.5 64.25-49.5 146.25zM88.25 79.5q0 13.75 5.75 23 9.75 17 35.75 25.5 21 7 45.5 7 5.75 0 10.75-0.5 1-0.5 13.5-9.25 0.5-0.5 3.625-2.75t5.875-4.375 3.75-3.125q0.75-0.75 3.375-3.25t5-4.75 3.375-3.75q0.25-1 4.25-6.5 3-4.25 3.75-7.5 3-9 3-16.25 0-27.25-21.75-39.25-19.25-11-45.5-11-28.25 0-52.5 13-12.5 6.5-20 18t-7.5 25.75zM111.5 292.75q0 21.5 11.25 35.75t30.5 14.25q13.5 0 25-8.625t18.25-22.375q13.5-28.5 13.5-55 0-22-9.625-34.625t-29.625-12.625q-10.5 0-20.75 5.5-17.5 10.75-28.5 34.5-10 21.5-10 43.25zM267.25 276h54.5v-54.5h27v54.5h54.75v27.25h-54.75v54.5h-27v-54.5h-54.5v-27.25z" />
<glyph unicode="&#xf05a;" d="M0 74q0-19.75 8.75-34.75 15.25-28 53.5-42.25 32.5-13 69.75-13t68.375 10 51.125 26.625 31 38 11 44.625q0 32.25-17.25 55.5-13.25 18-35.5 34.75-7.5 5.75-16.5 14-17.5 14.5-17.5 28.5 0 16.5 23 37.25 7.75 6.75 19 18.5 10 11 16.375 27.75t6.375 37q0 26-11.375 49.125t-31.625 35.875h39l38.75 22.5h-126q-27.25 0-54-5.5-40.25-9-67.5-41t-27.25-72.25q0-42.25 30.5-70.75t74-28.5q4.5 0 20 1.5-0.75-3-4.25-12.25-2-5.25-2-12.5 0-19.75 18.5-43-19-0.25-43.5-3.75-56.25-9-86.5-30.75-17.5-13-27.875-33t-10.375-38.25zM53.5 87.5q0 17.25 7.75 31 14 24.25 48.25 34.75 29.75 9.25 61.75 9.25 4.5 0 14.25-0.75 0.25 0 8.375-5.625t10.125-6.875q7-4.75 18.25-14 0.75-0.75 4.5-4.25t6.625-6.5 4.375-5q0.75-1 1.625-2.375t2.125-3.375 2.25-3.25q3-4.75 5-9.75 4-12.5 4-22.25 0-17.75-7.75-31.375t-21.5-21.375q-26-15-61.5-15-39 0-71.5 17.75-17 8.75-27 24.25t-10 34.75zM84.75 375.75q0 29 15.25 48.375t41.25 19.375q18.5 0 34-11.5t24.75-30.5q18-38 18-74.25 0-30.25-12.875-47t-39.875-16.75q-14.25 0-28 7.5-23 13-39 46.25-13.5 29.25-13.5 58.5zM295.5 353.5h74v-74h36.75v74h73.75v37h-73.75v73.5h-36.75v-73.5h-74v-37z" />
<glyph unicode="&#xf05b;" d="M0 224q0 48.75 19 93.25t51.125 76.625 76.625 51.125 93.25 19 93.25-19 76.625-51.125 51.125-76.625 19-93.25-19-93.25-51.125-76.625-76.625-51.125-93.25-19-93.25 19-76.625 51.125-51.125 76.625-19 93.25zM116.25 146.75q0-19.25 13.625-32.75t32.875-13.5h154.75q19.25 0 32.875 13.5t13.625 32.75v154.75q0 19.25-13.625 32.75t-32.875 13.5h-154.75q-19.25 0-32.875-13.5t-13.625-32.75v-154.75zM157.75 146.75v103q0 2 1.5 3.625t3.5 1.625h31q2 0 3.5-1.625t1.5-3.625v-103q0-2-1.5-3.625t-3.5-1.625h-31q-2 0-3.5 1.625t-1.5 3.625zM157.75 286.75q0 8 5.875 14t13.875 6q8.25 0 14.125-5.875t5.875-14.125-5.75-14q-6-6-14.25-6-8 0-13.875 5.75t-5.875 14.25zM209.25 146.75v103.75q0 2 2.375 3.25t4.625 1.25h28.5q5.75 0 5.75-5.75 0 0.75 2 2 11.5 7.25 25.75 7.25 21 0 32.625-10.625t11.625-31.125v-70q0-2-1.5-3.625t-3.5-1.625h-30q-2.25 0-4.125 1.625t-1.875 3.625v63.25q0 8.5-2.625 12t-10.125 3.5q-18.25 0-18.25-22.5v-56.25q0-2-1.5-3.625t-3.25-1.625h-29.5q-2.25 0-4.625 1.625t-2.375 3.625z" />
<glyph unicode="&#xf05c;" d="M0 74v300q0 37.25 26.375 63.625t63.625 26.375h300q37.25 0 63.625-26.375t26.375-63.625v-300q0-37.25-26.375-63.625t-63.625-26.375h-300q-37.25 0-63.625 26.375t-26.375 63.625zM80 74q0-4 3-7t7-3h60q4 0 7 2.875t3 7.125v200q0 4-3 7t-7 3h-60q-4 0-7-3t-3-7v-200zM80 345.25q0-16 11.25-27.375t27.25-11.375q16.75 0 27.5 11.5 11.25 11.25 11.25 27.25t-11.375 27.375-27.375 11.375-27.25-11.375-11.25-27.375zM180 74q0-4 4.75-7t9.5-3h57q3.5 0 6.125 3t2.625 7v109q0 43.75 35.75 43.75 14.75 0 19.5-6.5t4.75-23.5v-122.75q0-4 3.75-7t8.25-3h58q4 0 7 2.875t3 7.125v135.75q0 39.25-22.625 60.125t-63.625 20.875q-28.25 0-49.25-14.25-4.25-2.5-4.5-3.75 0 11.25-10.75 11.25h-55q-5 0-9.625-2.5t-4.625-6.25v-201.25z" />
<glyph unicode="&#xf05d;" d="M0 74v147.25h110.25q12.25-42.75 48.25-70.125t81.5-27.375 81.5 27.375 48.25 70.125h110.25v-147.25q0-37.25-26.375-63.625t-63.625-26.375h-300q-37.25 0-63.625 26.375t-26.375 63.625zM0 296v78q0 37.25 26.375 63.625t63.625 26.375h300q37.25 0 63.625-26.375t26.375-63.625v-78h-110.25q-12.25 42.75-48.25 70.25t-81.5 27.5-81.5-27.5-48.25-70.25h-110.25zM165.25 258.75q0-31.25 21.875-53.125t52.875-21.875q31.25 0 53.25 22t22 53-22 53-53.25 22q-31 0-52.875-21.875t-21.875-53.125z" />
<glyph unicode="&#xf05f;" d="M0 320q0-22.5 16.375-38.375t39.375-15.875h64.25v-191.75l293.75 191.75h115.5q23 0 39.25 15.875t16.25 38.375q0 22.25-16.25 38.125t-39.25 15.875h-149.25l-148.75-97v97h-175.5q-23 0-39.375-15.875t-16.375-38.125z" horiz-adv-x="585" />
<glyph unicode="&#xf060;" d="M0 224q0 48.75 19 93.25t51.125 76.625 76.625 51.125 93.25 19 93.25-19 76.625-51.125 51.125-76.625 19-93.25-19-93.125-51.125-76.625-76.625-51.25-93.25-19-93.25 19-76.625 51.25-51.125 76.625-19 93.125zM83.5 247.5q0-12.25 8.75-21t21-8.75h34.5v-105.75l157.5 105.75h61.5q12.25 0 21 8.75t8.75 21-8.75 21.125-21 8.875h-80l-79.5-53.75v53.75h-94q-12.25 0-21-8.875t-8.75-21.125z" />
<glyph unicode="&#xf061;" d="M0-16q0 4.5 0.5 11.875t5.5 23.75 14 25.375q8.75 8.75 34.75 19.25t58.75 22.125 48 19.375q19.25 9.75 29.875 28.5t10.625 39q0 13.75-16.5 32.5-16.75 19.25-27.125 52.375t-10.375 76.375q0 32.5 9.25 57.875t25.25 40.625 36.375 23.125 43.625 7.875 43.375-7.875 36.25-23.125 25.375-40.625 9.25-57.875q0-43.25-10.25-76.375t-27-52.375q-16.75-19-16.75-32.5 0-20 10.75-38.875t30-28.625q15.25-7.75 48-19.375t58.5-22.125 34.5-19.25q9-9 14-24.25t5.5-26l0.75-10.75h-524.75z" horiz-adv-x="525" />
<glyph unicode="&#xf064;" d="M0 69.75q10 4 30.5 11.375t35.625 13.375 25.625 11.25q18.75 9.75 29.25 28.625t10.5 39.125q0 13.75-16 32.5-9.5 10.75-16.75 31-23 9-23 38.75 0 22 7 31.25-2.5 20-4.5 42.25-2.25 28.25 13.625 55.125t43 43.25 56.375 16.375q22 0 43.375-9.875t37.125-25.625 24.875-36.875 7.375-42.375q-2.5-28.5-4.5-42.25 7.25-9.5 7.25-31.25 0-29.5-23-38.75-7.75-21-16.5-31-16.5-18.75-16.5-32.5 0-20.25 10.5-39.125t29.5-28.625q15.25-7.75 47.5-19.375t57.75-22.125 34-19.25q9-9 14-24.25t5.5-26l0.5-10.75h-450v85.75zM361.25 223q0 17.75 6 25.5-2.75 16.75-3.75 34.5-1.75 23.25 11.125 45.75t35.125 36.625 46 14.125 46-14.125 35.125-36.625 11.125-45.75q-1-17.75-3.75-34.5 6-7.75 6-25.5 0-24.25-18.75-31.75-5.75-16.75-13.5-25.5-4.5-5.25-6.625-8.125t-4.5-8.25-2.375-10.375q0-16.25 8.625-31.875t24.125-23.375q9-4.5 21.875-9.625t30.375-11.375 25.75-9.5v-69.25h-130q0 2-0.125 5.5t-1.5 13.25-3.75 18.625-7.375 19.25-11.75 17.125q-12.25 12.5-27.25 22.375t-40.75 19.125q14 17.25 14 39.75 0 5-2.375 10.375t-4.375 8.25-6.25 8.125q-7 7.75-13.75 25.25-18.75 8.25-18.75 32z" horiz-adv-x="615" />
<glyph unicode="&#xf068;" d="M0 74v260.5q0 18 12.875 30.625t30.875 12.625h14.75q1.25 16.75 13.75 28.375t29.75 11.625h97.5q17 0 29.5-11.625t13.75-28.375h179.75q18 0 30.875-12.625t12.875-30.625v-43.5h33.75q18 0 28.375-12.75t7.125-30.75l-50.75-173.5q-3.25-18-18.625-30.75t-33.625-12.75h-388.75q-18 0-30.875 12.75t-12.875 30.75zM43.75 161l25 86.5q3.5 18 18.875 30.75t33.625 12.75h301.25v43.5h-378.75v-173.5zM64 74h368.5q2.5 0 5.75 2.625t3.75 5.375l0.25 2 0.5 2 47 161.5h-368.5q-2.25 0-5.625-2.625t-3.625-5.375l-0.25-2-0.5-2z" horiz-adv-x="537" />
<glyph unicode="&#xf06a;" d="M0 69.5q0-35.25 24.75-60.5 25-25 60-25t60 25l246.75 248q33.25 33.25 33.25 81.5 0 47.75-33.25 81t-80.625 33.25-80.625-33.25l-187.75-188.75 28-28.75 187.75 189q22 22 52.75 22t52.75-22q21.75-21.75 21.75-52.5t-21.75-53l-247-248q-13.25-13.25-32-13.25t-32 13.25q-13 13-13 32t13 32l205.5 207q4.5 4.5 10.875 4.5t10.875-4.5q4.25-4.25 4.25-10.75 0-6.25-4.25-10.5l-154.25-155.5 28-28.5 154 155.5q16.25 16.25 16.25 39 0 23.5-16.25 39.25-16 16.25-38.625 16.25t-38.625-16.25l-205.75-207q-24.75-25.25-24.75-60.5z" horiz-adv-x="425" />
<glyph unicode="&#xf06d;" d="M0 224q0 48.75 19 93.25t51.125 76.625 76.625 51.125 93.25 19 93.25-19 76.625-51.125 51.125-76.625 19-93.25-19-93.25-51.125-76.625-76.625-51.125-93.25-19-93.25 19-76.625 51.125-51.125 76.625-19 93.25zM90.5 208q0-11.25 7.75-19.25l78.5-78.25q7.25-8 19.25-8 11.25 0 19.25 8l161.25 161.25q8 8 8 19.25t-8 19-19.25 7.75-19.25-7.75l-142-142-59.25 59q-7.75 8-19.125 8t-19.375-8q-7.75-7.75-7.75-19z" />
<glyph unicode="&#xf06e;" d="M0 224q0 48.75 19 93.25t51.125 76.625 76.625 51.125 93.25 19 93.25-19 76.625-51.125 51.125-76.625 19-93.25-19-93.25-51.125-76.625-76.625-51.125-93.25-19-93.25 19-76.625 51.125-51.125 76.625-19 93.25zM133.5 144.5q0-11.25 8-19 7.75-8 18.75-8 11.25 0 19.25 8l60.5 60.5 60.75-60.5q7.75-8 19-8 11 0 19 8 7.75 7.75 7.75 19t-7.75 19l-60.75 60.5 60.75 61q7.75 7.75 7.75 19t-7.75 19-19 7.75-19-7.75l-60.75-61-60.5 61q-8 7.75-19.125 7.75t-18.875-7.75q-8-7.75-8-19t8-19l60.5-61-60.5-60.5q-8-7.75-8-19z" />
<glyph unicode="&#xf070;" d="M0 139v98q0 13.75 9.75 26l52.75 69q12.25 17.25 32.75 17.25h380q20.25 0 32.5-17.25l52.75-69q9.75-12.25 9.75-26v-98q0-16.5-11.75-28.25t-28.25-11.75h-490.25q-16.5 0-28.25 11.75t-11.75 28.25zM64.625 239.875q3.625-6.375 14.125-6.375h108q0-16.5 11.625-28.25t28.125-11.75h117.25q16.5 0 28.125 11.75t11.625 28.25h108q10.5 0 14 6.375t-2 15.125l-28.25 46q-5.75 9-17.125 15.375t-21.875 6.375h-302.25q-10.5 0-21.75-6.375t-17-15.375l-28.75-46q-5.5-8.75-1.875-15.125z" horiz-adv-x="571" />
<glyph unicode="&#xf074;" d="M0 324.25q0.25 17.75 9.25 32.5 10.25 16.75 29.375 24.5t41.875 4.25q-0.5 16.5-0.5 25.5 0 22.75 35.375 37.875t96.375 15.125q60.75 0 96.125-15.125t35.375-37.875q0-0.75-0.75-25.5 22.75 3.5 42-4.25t29.75-24.5q9-14.75 9.125-32.5t-8.625-35.25q-6.75-13.5-23.375-26t-48.125-31.25q-18.25-11-27.125-16.625t-23.875-16-24.75-19.625-16-18.5q-6.25-12.5-6.25-29 0-25 16.375-47.375t37.875-28.875q21-6.5 28.375-13.75t7.375-22.25-34.375-25.375-89.125-10.375-89.25 10.375-34.5 25.375 7.375 22.25 28.375 13.75q21.5 6.5 37.875 28.875t16.375 47.375q0 16.5-6.25 29-5 7.5-13.5 15.75t-15.875 14.125-21.125 15-19.875 12.875-21.375 13q-21.25 12.5-32.625 20t-22.875 17.625-16.25 19.625q-8.5 17.5-8.25 35.25zM46.25 333.75q-6.25-9.5 1-25 4.75-9.25 50.75-37-9.75 29.5-14.25 68.25-1 0.25-3.25 1t-3.25 1q-9.25 1.25-10.25 1.25-14.75 0-20.75-9.5zM128.75 409q0-10 24.25-17t58.75-7q34.25 0 58.375 7t24.125 17-24.125 17-58.375 7-58.625-7-24.375-17zM325.25 271.75q46 27.75 50.75 37 7.25 15.25 1.25 25-8.25 12.75-31.25 8.25-2-0.5-6.5-2-4.75-40.5-14.25-68.25z" horiz-adv-x="424" />
<glyph unicode="&#xf075;" d="M0 29.5v201.25q0 7.25 5.125 12.125t12.625 4.875h230v76.25q0 32.5-21.5 55.25-21.25 21.75-49.75 21.75t-49.75-21.75q-21.25-22.5-21.25-55.25v-19.5h-64.75v19.5q0 28 10.375 53.5t28.875 45q18.25 19.5 43.375 30.5t53.125 11 53.25-11 43.5-30.5q18.5-19.5 28.75-45t10.25-53.5v-76.25h23.25q7.5 0 12.625-4.875t5.125-12.125v-201.25q0-6.5-4.125-9.75t-13.625-7.25q-5-2.25-17.75-6.25t-33.875-9.375-50.125-9.125-57.25-3.75q-79.25 0-158.75 28.5-8.5 2.75-13.125 6.625t-4.625 10.375zM95.75 116.875q0-6.125 4.25-10.375l43.75-42.75q4.25-4.25 10.5-4.25 6.75 0 10.5 4.25l89.75 87.75q4.5 4.5 4.5 10.625t-4.5 10.625q-4.25 4.25-10.5 4.25t-10.5-4.25l-79.25-77.5-32.75 32q-4.5 4.5-10.75 4.5t-10.75-4.5q-4.25-4.25-4.25-10.375z" horiz-adv-x="353" />
<glyph unicode="&#xf07b;" d="M4.125 94.25q-8.875 33.75 0 67.5t34.125 59l67.25 67q25.25 25.25 58.875 34.125t67.375 0 59-34.125q10.5-10.5 10.5-25.375t-10.5-25.375-25.375-10.5-25.375 10.5q-17.5 17.5-42 17.5t-41.5-17.5l-67.25-67.25q-17-17.5-17-41.875t17-41.875q17.5-17 41.75-17t41.75 17l13.75 14q39.75-19.25 84-18l-46.75-46.75q-25.25-25.25-59-34.125t-67.5 0-59 34.125-34.125 59zM153 186.125q0 14.875 10.75 25.375 10.5 10.5 25.375 10.5t25.375-10.5q17-17.5 41.5-17.5t42 17.5l67.25 67.25q17.5 17.5 17.5 41.875t-17.5 41.375q-17 17.5-41.5 17.5t-42-17.5l-14-13.5q-39.5 18.75-83.75 18l46.75 46.75q25.25 25 59 33.875t67.5 0 58.75-33.875q25.25-25.25 34.125-59t0-67.5-34.125-59l-67.25-67q-25.25-25.25-59-34.25t-67.375 0-58.625 34.25q-10.75 10.5-10.75 25.375z" horiz-adv-x="455" />
<glyph unicode="&#xf07e;" d="M5.75 237.625q-12.25 46.375 0 92.75t47 80.875q26 26 59.125 39.375t68.375 13.375q35.5 0 68.5-13.375t59-39.375q27.75-27.5 41.25-63.625t11.375-73.5-19.125-71.125q16-5.25 26.5-15.75l93-93.25q19-19 19-45.5t-19-45.5-45.25-19q-26.75 0-45.75 19l-93.25 93q-10.25 10.25-15.75 26.75-38.5-19-80.5-19-35.25 0-68.375 13.375t-59.125 39.375q-34.75 34.75-47 81.125zM60.5 284q0-50 35-85 17-17 38.875-26.125t45.875-9.125q50.25 0 85 35.25 17 16.75 26.125 38.75t9.125 46q0 50-35.25 85.25-35 35-85 35-49.75 0-84.75-35t-35-85zM380.25 386.5q0 6.25 4.5 10.625t10.5 4.375h48v47.75q0 6.25 4.25 10.5t10.5 4.25 10.5-4.25 4.25-10.5v-47.75h48q6 0 10.5-4.375t4.5-10.625-4.5-10.625-10.5-4.375h-48v-47.75q0-6.25-4.25-10.625t-10.5-4.375q-6 0-10.5 4.5-4.25 4.25-4.25 10.5v47.75h-48q-6 0-10.75 4.25-4.25 4.75-4.25 10.75z" horiz-adv-x="536" />
<glyph unicode="&#xf07f;" d="M5.75 237.625q-12.25 46.375 0 92.75t47 80.875q26 26 59.125 39.375t68.375 13.375q35.5 0 68.5-13.375t59-39.375q27.75-27.5 41.25-63.625t11.375-73.5-19.125-71.125q16-5.25 26.5-15.75l93-93.25q19-19 19-45.5t-19-45.5-45.25-19q-26.75 0-45.75 19l-93.25 93q-11.5 11.5-15.75 26.75-38.75-19-80.5-19-35.25 0-68.375 13.375t-59.125 39.375q-34.75 34.75-47 81.125zM60.5 284q0-50 35-85 17-17 38.875-26.125t45.875-9.125 46.125 9.125 38.875 26.125q17 16.75 26.125 38.75t9.125 46q0 50-35.25 85.25-16.75 16.75-38.875 25.875t-46.125 9.125q-49.75 0-84.75-35t-35-85zM380.25 386.5q0 6.25 4.375 10.625t10.625 4.375h125.25q6.25 0 10.75-4.375t4.5-10.625-4.5-10.625-10.75-4.375h-125.25q-6 0-10.75 4.25-4.25 4.75-4.25 10.75z" horiz-adv-x="536" />
<glyph unicode="&#xf080;" d="M0 47v353.75q0 13.5 9.625 23.375t23.125 10.375h355.25q13.5 0 23-9.75t9.5-23.5v-353.75q0-13.75-9.5-23.5t-23-10.25h-355.25q-13.5 0-23.125 9.75t-9.625 23.5z" horiz-adv-x="421" />
<glyph unicode="&#xf081;" d="M0 90.75v251.25q0 35.75 25.375 61.125t61.125 25.375h66.25q14.5 0 24.5-10t10-24q0-14.5-10-24.5t-24.5-10h-66.25q-7.5 0-12.75-5.25t-5.25-12.75v-251.25q0-7.25 5.25-12.625t12.75-5.375h301.25q7.5 0 12.75 5.375t5.25 12.625v30.75q0 14 10 24.125t24 10.125q14.25 0 24.25-10t10-24.25v-30.75q0-35.75-25.25-61t-61-25.25h-301.25q-35.75 0-61.125 25.25t-25.375 61zM124.75 137q23.25 41.5 62.125 67.625t85.875 30.375q21.5 1.25 37.5-1v-52.75q0-11.5 5.875-15.5t13.625 2l145 106q5.25 4 5.25 10 0 2.75-1.25 5.25t-2.75 3.75l-1.25 1.25-145 105.75q-7.75 6.25-13.625 2.375t-5.875-15.375v-43.5q-3.25 0-10.25-0.5-37-3.25-69.875-21t-56.125-45.125-36.625-63.875-12.625-75.75z" />
<glyph unicode="&#xf082;" d="M0 224q0 15.25 7.875 34.5t22.125 39.625 36 39.875 47.375 34.875 58.75 24.75 67.875 9.375 67.875-9.375 58.75-24.75 47.375-34.875 36-39.875 22.125-39.625 7.875-34.5q0-15-7.875-34.25t-22.125-39.625-36-39.75-47.375-34.75-58.75-24.75-67.875-9.375-67.875 9.375-58.75 24.75-47.375 34.75-36 39.75-22.125 39.625-7.875 34.25zM120 224q0-32.5 16.125-60t43.75-43.5 60.125-16 60.125 16 43.75 43.5 16.125 60-16.125 60.125-43.75 43.75-60.125 16.125-60.125-16.125-43.75-43.75-16.125-60.125zM189.75 224q0-20.75 14.75-35.5t35.5-14.75 35.5 14.75 14.75 35.5q0 21-14.75 35.875t-35.5 14.875-35.5-14.875-14.75-35.875z" />
<glyph unicode="&#xf083;" d="M0 395.25q0 18.75 30.25 34.5t82.5 25 113.75 9.25q61.75 0 114-9.25t82.5-25 30.25-34.5q-5.25-41.25-19.75-116.5t-28.375-141.25-14.625-70.75q-3.25-18.5-20.375-34.5t-41.25-26.25-51.125-16.125-51.25-5.875-51.25 5.875-51 16.125-41.125 26.25-20.375 34.5q-2 10.75-16.75 82.125t-28.5 142.5-17.5 103.875zM64.75 280.75l19.25-93.75 44.5 38.5zM67.5 380q0-16.25 46.5-27.625t112.5-11.375q66.25 0 112.75 11.375t46.5 27.625q0 16.5-46.625 28t-112.625 11.5-112.5-11.5-46.5-28zM95.75 130l10.75-52.5 25.25 21.75zM99.75 289.5l51.75-44.5 36.5 31.75q-48.5 3-88.25 12.75zM102.5 163.5l51.75-44.75 49.25 42.25-52 44.75zM127.75 56.5q36.5-15.5 76-19.25l-49.5 42.25zM174 225.5l52-44.75 49.25 42.25-51 45.75zM177.25 99.25l52.25-45.25 48.5 42.75-52 44.75zM248.75 161l51.75-44.5 47.25 41-50.25 45.5zM256 37.75q36.25 4.25 68.75 18.25l-24 21zM260.25 276.5l37.5-34 54.25 46.75q-40.5-10.25-91.75-12.75zM320 222.5l47.75-43 21 102zM323.5 96.75l23-20 10 49z" horiz-adv-x="453" />
<glyph unicode="&#xf084;" d="M0 132.5v102.25q0 13.25 8.75 23.25h-0.25l47.75 62.75q10.75 15.25 29.5 15.25h33.75q57.25 15.5 137.75 15.5 80.25 0 137.5-15.5h33.75q18.75 0 29.5-15.25l47.75-62.75h-0.25q8.75-10 8.75-23.25v-102.25q0-14.75-10.5-25.25t-25.25-10.5h-442.5q-15 0-25.5 10.5t-10.5 25.25zM50.75 163.25q0-8 5.625-13.625t13.625-5.625h45.25q7.75 0 13.375 5.625t5.625 13.625-5.625 13.625-13.375 5.625h-45.25q-8 0-13.625-5.625t-5.625-13.625zM88 284q0-11.5 22.625-21.125t61.625-15.25 85-5.625 84.875 5.625 61.5 15.25 22.625 21.125-22.625 21.125-61.5 15.25-84.875 5.625-85-5.625-61.625-15.25-22.625-21.125zM162.75 163.25q0-8 5.625-13.625t13.625-5.625h5.5q7.75 0 13.375 5.625t5.625 13.625-5.625 13.625-13.375 5.625h-5.5q-8 0-13.625-5.625t-5.625-13.625zM206.5 284q0 5 15 8.875t35.75 3.875q20.5 0 35.375-3.875t14.875-8.875-14.75-8.75-35.5-3.75q-21 0-35.875 3.75t-14.875 8.75z" horiz-adv-x="515" />
<glyph unicode="&#xf085;" d="M0 224q0 49 19 93.375t51.125 76.5 76.5 51.125 93.375 19q48.75 0 93.25-19t76.625-51.125 51.125-76.5 19-93.375q0-48.75-19-93.25t-51.125-76.625-76.625-51.125-93.25-19q-49 0-93.375 19t-76.5 51.125-51.125 76.625-19 93.25zM204 311q0-14.75 9.875-23.5t26.125-8.75q16.5 0 26.25 8.75t9.75 23.5-9.75 23.375-26.25 8.625q-16.25 0-26.125-8.75t-9.875-23.25zM206.25 105.25h67.75v153.25h-67.75v-153.25z" />
<glyph unicode="&#xf086;" d="M0 224q0 49 19 93.375t51.125 76.5 76.5 51.125 93.375 19q48.75 0 93.25-19t76.625-51.125 51.125-76.5 19-93.375q0-48.75-19-93.25t-51.125-76.625-76.625-51.125-93.25-19q-49 0-93.375 19t-76.5 51.125-51.125 76.625-19 93.25zM60 224q0-36.5 14.25-69.875t38.375-57.5 57.5-38.375 69.875-14.25 69.875 14.25 57.5 38.375 38.375 57.5 14.25 69.875-14.25 69.875-38.375 57.5-57.5 38.375-69.875 14.25-69.875-14.25-57.5-38.375-38.375-57.5-14.25-69.875zM204 311q0 14.5 9.875 23.25t26.125 8.75q16.5 0 26.25-8.625t9.75-23.375-9.75-23.5-26.25-8.75q-16.25 0-26.125 8.75t-9.875 23.5zM206.25 105.25v153.25h67.75v-153.25h-67.75z" />
<glyph unicode="&#xf087;" d="M0 92v262q0 18 13.375 30.875t31.875 12.875h30v7.25q0 18.25 13.125 31t31.625 12.75h240q18.5 0 31.625-12.75t13.125-31v-10.25q0 0.5 0.375 1.375t0.375 1.625h29.25q18.5 0 31.875-12.875t13.375-30.875v-262q0-18-13.25-30.75t-32-12.75h-30v-5q0-18.25-13.125-31.125t-31.625-12.875h-240q-18.5 0-31.625 12.875t-13.125 31.125v5h-30q-18.75 0-32 12.75t-13.25 30.75zM105.25 43.5q0-5.75 4.25-9.875t10.5-4.125h240q6.25 0 10.75 4.125t4.5 9.875v173.5q-10.75 6-23 6h-224.75q-11.75 0-22.25-6v-173.5zM105.25 357q7.75-3 15-3h240q6.25 0 15 2.75v48.25q0 5.75-4.5 9.75t-10.75 4h-240q-6.25 0-10.5-4t-4.25-9.75v-48z" />
<glyph unicode="&#xf088;" d="M0 69.75l116.25 308.75h75l106.5-283 62.75 167.25h47l72.5-193h-49.25l-13.25 39h-69l-13.75-39h-106.25l-21.75 62.25h-109.5l-22-62.25h-75.25zM113.5 188.5h76.75l-38.25 110.5zM358.75 143.75h48l-24 69.5z" />
<glyph unicode="&#xf089;" d="M0 128.75q0-10 7.25-15.125t15.5-3.625q7.75 1.5 10.875 5.5t3.125 13.25v72.5q0 7.75-5.375 13.125t-13.125 5.375q-7.5 0-12.875-5.375t-5.375-13.125v-72.5zM57.5 97.75q0-7.25 5.125-10.875t13.125-3.625q8.25 0 13.375 3.625t5.125 10.875v169q0 7.5-5.375 12.875t-13.125 5.375q-7.5 0-12.875-5.375t-5.375-12.875v-169zM114.75 89.75q0-7.25 5.25-10.875t13.5-3.625q8 0 13.125 3.625t5.125 10.875v154.25q0 7.75-5.375 13.25t-12.875 5.5q-7.75 0-13.25-5.5t-5.5-13.25v-154.25zM172.25 89q0-13.75 18.5-13.75t18.5 13.75v250q0 21-12.75 23.75-8.25 2-16.25-4.75t-8-19v-250zM230.75 81.75v272q0 13 7.75 15.5 16.75 4 33.25 4 38.25 0 71.25-18t53.375-49.125 23.625-68.625q15.25 6.5 32.5 6.5 35 0 59.875-24.75t24.875-59.5q0-35-24.875-59.75t-59.625-24.5h-217.5q-2.25 0.75-3.375 2.75t-1.125 3.5z" horiz-adv-x="537" />
<glyph unicode="&#xf08a;" d="M0 224q0 48.75 19 93.25t51.125 76.625 76.625 51.125 93.25 19 93.25-19 76.625-51.125 51.125-76.625 19-93.25-19-93.25-51.125-76.625-76.625-51.125-93.25-19-93.25 19-76.625 51.125-51.125 76.625-19 93.25zM84.25 180q0-5.75 4.25-8.625t9.25-2.125q4.5 1 6.25 3.125t1.75 7.625v42q0 4.5-3 7.625t-7.5 3.125-7.75-3.125-3.25-7.625v-42zM117.75 162q0-4 3-6.25t7.5-2.25q4.75 0 7.875 2.25t3.125 6.25v97.75q0 4.5-3.25 7.75t-7.75 3.25q-4.25 0-7.375-3.25t-3.125-7.75v-97.75zM150.75 157.5q0-8.25 11-8.25 10.5 0 10.5 8.25v89.5q0 4.5-3.125 7.5t-7.375 3q-4.5 0-7.75-3t-3.25-7.5v-89.5zM184.25 157q0-7.75 10.5-7.75 11 0 11 7.75v144.75q0 12-7.5 13.75-4.75 1.25-9.375-2.625t-4.625-11.125v-144.75zM218 153.5q-0.5-3 2.75-4.25h125.75q20.5 0 34.75 14.125t14.5 34.625q0 20.25-14.375 34.625t-34.875 14.375q-9.25 0-18.75-4-2.75 33.25-27.5 56t-58.25 22.75q-10 0-19.5-2.25-4.5-1.75-4.5-9v-157z" />
<glyph unicode="&#xf4ac;" d="M0 251.75q0 34.5 13.625 66.625t38.625 58.25 58.125 45.625 74.375 30.25 85.25 10.75 85.25-10.75 74.375-30.25 58.125-45.625 38.625-58.25 13.625-66.625q0-43-21.375-82t-57.5-67.25-86.125-45-105-16.75q-53.75 0-103.25 16l-61.5-43.5q-34.5-21.75-48.5-12.625t-6.25 51.375l12.75 64q-30.25 28-46.75 62.75t-16.5 73z" horiz-adv-x="540" />
<glyph unicode="&#xf4b3;" d="M0 86.5v275.5q0 15.5 11.625 26.75t27.875 11.25h401.75q16.25 0 27.5-11t11.25-27v-275.5q0-15.5-11.375-26.75t-27.375-11.25h-401.75q-16.25 0-27.875 11.25t-11.625 26.75zM39.5 86.75h401.75v275.75h-401.75v-275.75zM81.75 134.75q0 5.5 2.375 9.125t5.875 3.625h91.75q3.5 0 6-3.625t2.5-9.125-2.5-9.375-6-3.875h-91.75q-3.5 0-5.875 3.875t-2.375 9.375zM81.75 182.5q0 5.5 2.375 9.125t5.875 3.625h164.75q3.5 0 6-3.75t2.5-9q0-5.5-2.5-9.375t-6-3.875h-164.75q-3.5 0-5.875 3.875t-2.375 9.375zM81.75 241.5v40.5q0 7 4.875 12t11.875 5h49.25q7 0 11.875-5t4.875-12v-40.5q0-7-4.875-11.875t-11.875-4.875h-49.25q-7 0-11.875 4.875t-4.875 11.875zM101.5 244h43.25v35.25h-43.25v-35.25zM277.25 182.5q0 5.25 2.5 9t6 3.75h34.25q3.5 0 6-3.625t2.5-9.125-2.5-9.375-6-3.875h-34.25q-3.5 0-6 3.875t-2.5 9.375zM342.75 182.5q0 5.5 2.625 9.125t6.125 3.625h34.25q3.5 0 6-3.625t2.5-9.125-2.5-9.375-6-3.875h-34.25q-3.5 0-6.125 3.875t-2.625 9.375z" />
<glyph unicode="&#xf4c2;" d="M0 74v260.5q0 18 12.75 30.625t31 12.625h14.75q1.25 16.75 13.75 28.375t29.75 11.625h97.5q17 0 29.5-11.625t13.75-28.375h179.75q18 0 30.875-12.625t12.875-30.625v-43.5h33.75q18 0 28.375-12.75t6.875-30.75l-50.5-173.5q-3.25-18-18.625-30.75t-33.625-12.75h-388.75q-18.25 0-31 12.75t-12.75 30.75zM64 74h368.5q2.25 0 5.625 2.625t3.625 5.375l1 4 47 161.5h-368.5q-2.25 0-5.625-2.625t-3.625-5.375l-1.25-4z" horiz-adv-x="536" />
<glyph unicode="&#xf4c5;" d="M0 29v390q0 18.5 13.375 31.75t31.875 13.25h390q18.5 0 31.625-13.25t13.125-31.75v-390q0-18.5-13.125-31.75t-31.625-13.25h-390q-18.5 0-31.875 13.25t-13.375 31.75zM45.25 29h390v270h-390v-270zM76 59v90h90v-90h-90zM76 179v90h90v-90h-90zM196 59v90h90v-90h-90zM196 179v90h90v-90h-90zM316 59v90h90v-90h-90zM316 179v90h90v-90h-90z" />
<glyph unicode="&#xf4f0;" d="M0 77.75v292.75q0 20 14.25 34.25t34.25 14.25h286.25q20 0 34.375-14.25t14.375-34.25v-32.75h48q20 0 34.25-14.25t14.25-34.25v-211.5q0-20-14.25-34.25t-34.25-14.25h-383q-20 0-34.25 14.25t-14.25 34.25zM44.75 99.75q0.25-10.25 7.375-17.5t17.375-7.75h265.25q3.25 0 3.75 3.25v270.25q0 10.75-7.625 18.25t-18.375 7.5h-241.75q-10.75 0-18.25-7.375t-7.75-17.875v-248.75zM82.5 135.5q0 9.25 6.75 15.875t16 6.625h68q9.25 0 15.875-6.625t6.625-15.875-6.625-15.875-15.875-6.625h-68q-9.25 0-16 6.625t-6.75 15.875zM82.5 224q0 9.25 6.75 16t16 6.75h173q9.25 0 15.875-6.625t6.625-16.125q0-9.25-6.625-15.875t-15.875-6.625h-173q-9.25 0-16 6.625t-6.75 15.875zM82.5 312.75q0 9.25 6.625 15.875t16.125 6.625h173q9.25 0 15.875-6.5t6.625-16q0-9.25-6.625-16t-15.875-6.75h-173q-9.25 0-16 6.75t-6.75 16zM383.5 99.5q0.25-10.25 7.125-17.375t17.125-7.625h2.75q10.25 0.5 17.25 7.75t7 17.75v189.25q0 3.75-3.25 3.75h-48v-193.5z" />
<glyph unicode="&#xf4f7;" d="M0 93.75v260.25q0 33.25 23.875 56.625t57.375 23.375h377.5q33.5 0 57.375-23.375t23.875-56.625v-260.25q0-33-23.875-56.375t-57.375-23.375h-377.5q-33.5 0-57.375 23.375t-23.875 56.375zM58.5 354q0-9.25 6.625-15.75t16.125-6.5q9.25 0 15.875 6.5t6.625 15.75-6.625 16-15.875 6.75-16-6.75-6.75-16zM150.25 228.5q0-32.5 16.125-60.125t43.75-43.75 60.125-16.125 60.125 16.125 43.75 43.75 16.125 60.125-16.125 60.125-43.75 43.75-60.125 16.125-60.125-16.125-43.75-43.75-16.125-60.125zM195.25 228.5q0-31.25 22-53.25t53-22 53 22 22 53.25q0 31-21.875 52.875t-53.125 21.875-53.125-21.875-21.875-52.875z" horiz-adv-x="540" />
<glyph unicode="&#xf50d;" d="M5.5 236.875q-11.75 44.375 0 88.625t44.75 77q24.75 24.75 56.375 37.625t65.375 12.875q33.5 0 65.125-12.875t56.375-37.625q26.5-26.5 39.25-60.875t10.75-70.125-18.25-67.75q14.5-4.25 25-14.75l89.25-89q17.75-18 17.75-43.375t-17.75-43.375q-18-18-43.5-18t-43.5 18l-88.75 88.75q-11 10.5-15.25 25.5-35.75-18.25-76.5-18.25-33.75 0-65.375 12.75t-56.375 37.5q-33 33-44.75 77.375zM57.5 280.875q0-47.625 33.25-80.875 33.5-33.5 81.25-33.5 47.25 0 80.75 33.5t33.5 81-33.5 81q-34 33.5-80.75 33.5-47.25 0-81.25-33.5-33.25-33.5-33.25-81.125z" horiz-adv-x="457" />
<glyph unicode="&#xf510;" d="M0 29.5v201.25q0 7.25 5.125 12.125t12.625 4.875h23v76.25q0 28 10.375 53.5t28.875 45q18.25 19.5 43.375 30.5t53.125 11 53.25-11 43.5-30.5q18.5-19.5 28.75-45t10.25-53.5v-76.25h23.25q7.5 0 12.625-4.875t5.125-12.125v-201.25q0-6.5-4.125-9.75t-13.625-7.25q-5-2.25-17.75-6.25t-33.875-9.375-50.125-9.125-57.25-3.75q-79.25 0-158.75 28.5-8.5 2.75-13.125 6.625t-4.625 10.375zM105.5 247.75h142.25v76.25q0 32.5-21.5 55.25-21.25 21.75-49.75 21.75t-49.75-21.75q-21.25-22.5-21.25-55.25v-76.25zM120 76.5q0-5.75 4.25-10 4.5-4.5 10-4.5 6 0 10 4.5l32.25 32 32.25-32q4-4.5 10-4.5 5.5 0 10 4.5 4.25 4.25 4.25 10.125t-4.25 9.875l-32.25 32.25 32.25 32q4.25 4.25 4.25 10.125t-4.25 10.125-10 4.25-10-4.25l-32.25-32.25-32.25 32.25q-4.25 4.25-10 4.25t-10-4.25-4.25-10.125 4.25-10.125l32.25-32-32.25-32.25q-4.25-4.25-4.25-10z" horiz-adv-x="353" />
<glyph unicode="&#xf512;" d="M0 29.5v201.5q0 7.25 5.125 12.375t12.375 5.125h23.25v76q0 27.75 10.25 53.125t28.75 44.875q18.5 19.75 43.5 30.625t53.25 10.875q28 0 53.125-11t43.625-30.5q18.25-19.5 28.5-44.875t10.25-53.125v-76h23.5q7.25 0 12.25-5.125t5-12.375v-201.5q0-3.5-1.125-6t-4-4.5-5-3.125-7.125-3.375q-9.75-4-27.375-9.375t-56.5-12.25-75.375-6.875q-77.25 0-158.75 28.5-8.5 3-13 6.75t-4.5 10.25zM105.5 248.5h142v76q0 32.25-21.5 55-20.5 21.25-49.5 21.75-29.25-0.25-49.75-21.75-21.25-22.5-21.25-55v-76z" horiz-adv-x="353" />
<glyph unicode="&#xf513;" d="M16.25 228.5v96q0 27.75 10 53.125t28 44.875q18.25 19.75 42.875 30.625t52.125 10.875 52.125-11 42.625-30.5 28-44.75 10-53.25v-76h231.75q7.25 0 12.375-5.125t5.125-12.375v-201.5q0-4.5-2.625-7.75t-5.375-4.75-9.5-4.5q-5.5-2.25-17.875-6.125t-33.625-9.375-50.25-9.25-57.25-3.75q-79.25 0-158.75 28.5-8.75 3-13.25 6.75t-4.5 10.25v201.5q0 7.25 5.25 12.375t12.5 5.125h23.25v76q0 31.75-21.25 54.75-20.5 21.75-48.75 21.75-29 0-48.75-21.75-21-22.75-21-54.75v-23.5l-30.75-37h30.75v-35.5l-30.25-22.75z" horiz-adv-x="548" />
<glyph unicode="&#xf525;" d="M0 134.5q0 7.25 0.75 14h-0.75q0 29 6 59.875t13.625 52.875 14.625 47.5 9.125 43.875-2.875 42.125q1.5-0.25 4.25-1.375t10.75-6.875 15.75-14.625 17.875-26.75 18.625-41.125q13.75 12.75 23.875 26.5t19.125 32.75 13.75 44.375 4.75 56.375q2.75-1.75 7.5-5t18.375-16.25 26.125-29 27.625-43.875 26-59.75 18.375-78 7.5-97.625q0-40.75-20.125-75.375t-54.75-54.875-75.375-20.25q-41 0-75.625 20.25t-54.75 54.875-20.125 75.375zM97.25 97q0-22.25 15.625-37.875t37.625-15.625 37.625 15.625 15.625 37.875q0 25-4.75 46.25t-11.625 33.75-13.75 21.25-11.625 12l-4.75 3.5q0-20.75-5.75-33.75t-16.25-22.75q-4.75 13-10.625 21t-9.625 9.5l-3.5 1.5q2.75-10.5-0.75-23.875t-8.5-30.75-5-32.875h0.25q-0.25-1.5-0.25-4.75z" horiz-adv-x="301" />
<glyph unicode="&#xf526;" d="M0 19v285.5q0 10.75 7.75 18.375t18.5 7.625h62.5q10.75 0 18.375-7.625t7.625-18.375v-285.5q0-10.75-7.625-18.5t-18.375-7.75h-62.5q-10.75 0-18.5 7.75t-7.75 18.5zM185.5 19v194.25q0 10.75 7.625 18.5t18.375 7.75h62.5q10.75 0 18.375-7.75t7.625-18.5v-194.25q0-10.75-7.5-18.375t-18.5-7.625h-62.5q-10.75 0-18.375 7.625t-7.625 18.375zM365.5 19v410.5q0 10.75 7.625 18.375t18.375 7.625h62.5q10.75 0 18.375-7.625t7.625-18.375v-410.5q0-11-7.625-18.625t-18.375-7.625h-62.5q-10.75 0-18.375 7.75t-7.625 18.5z" />
<glyph unicode="&#xf527;" d="M0 297.25q0 29.5 20.875 50.375t50.375 20.875q29.75 0 50.5-20.875t20.75-50.375q0-20.25-10.75-37.25l144.25-144q10 6 20.25 8.5v199.25q-23.75 5.75-39.125 25t-15.375 44.25q0 29.5 20.875 50.25t50.625 20.75q29.5 0 50.25-20.75t20.75-50.25q0-25-15.375-44.25t-39.125-25v-199.25q10.25-2.5 20.25-8.5l144.25 144q-10.5 17.25-10.5 37.25 0 29.75 20.75 50.5t50.25 20.75 50.375-20.875 20.875-50.375-20.875-50.5-50.375-21q-18.75 0-37 11l-144.25-144.25q10.75-17 10.75-37 0-29.75-20.75-50.625t-50.25-20.875q-29.75 0-50.625 20.875t-20.875 50.625q0 20 10.75 37l-144.25 144.25q-18.25-11-37-11-29.5 0-50.375 21t-20.875 50.5z" horiz-adv-x="626" />
<glyph unicode="&#xf528;" d="M240 359.25v104.75q66.5 0 121.625-31.625t86.75-86.75 31.625-121.625h-104.75q0 37-18 68.125t-49.125 49.125-68.125 18z" />
<glyph unicode="&#xf529;" d="M0 224q0.25 15.25 11.125 26.125t26.125 10.875h65.5q15.25 0 26.25-10.875t11-26.125-11-26.125-26.25-10.875h-65.5q-15.5 0-26.375 10.875t-10.875 26.125zM59.5 80.5q0 15.25 11 26l46.75 46.5q10.75 10.75 26 10.875t26-10.625q10.75-11 10.75-26.25t-10.75-26l-46.75-46.5q-10.75-10.75-26-10.75t-26 10.75q-11 10.75-11 26zM59.5 367.5q0 15.25 10.75 26.25 10.75 10.75 26.125 10.75t26.125-10.75l46.75-46.5q10.75-11 10.75-26.25t-10.75-26-26-10.75-26 10.75l-47 46.5q-10.75 10.75-10.75 26zM203.25 21v66q0 15.25 10.875 26t26.125 10.75 26.125-10.75 10.875-26v-66q0-15.25-10.875-26.125t-26.125-10.875-26.125 10.875-10.875 26.125zM203.25 361.25v65.75q0 15.25 10.75 26.125t26 10.875q15.5 0 26.375-10.875t10.875-26.125v-65.75q0-15.25-10.875-26.125t-26.375-11.125q-15.25 0-26 11t-10.75 26.25zM300.5 127q0 15.25 10.75 26.25 10.75 10.75 26 10.75t26-10.75l46.75-46.5q10.75-10.75 10.75-26.125t-10.75-26.125q-11-10.75-26.25-10.75t-26 10.75l-46.5 46.5q-10.75 10.75-10.75 26zM300.5 321q0 15.25 10.75 26.25l46.5 46.5q10.75 10.75 26 10.75t26-10.75q10.75-11 10.75-26.25t-10.75-26l-46.5-46.5q-10.75-10.75-26-10.75t-26 10.75-10.75 26zM340.25 224q0 15.25 11 26.125t26.25 10.875h65.75q15.25 0 26-10.875t10.75-26.125-10.75-26.125-26-10.875h-65.75q-15.5 0-26.375 10.875t-10.875 26.125z" />
<glyph unicode="&#xf530;" d="M0 19v194.25q0 11 7.625 18.625t18.375 7.375h62.5q10.75 0 18.375-7.625t7.625-18.375v-194.25q0-10.75-7.625-18.375t-18.375-7.625h-62.5q-10.75 0-18.375 7.625t-7.625 18.375zM185.5 19v285.5q0 10.75 7.625 18.375t18.375 7.625h62.5q10.75 0 18.375-7.625t7.625-18.375v-285.5q0-10.75-7.625-18.375t-18.375-7.625h-62.5q-11 0-18.5 7.625t-7.5 18.375zM365.5 19v410.25q0 11 7.625 18.625t18.375 7.625h62.5q10.75 0 18.375-7.75t7.625-18.5v-410.25q0-10.75-7.625-18.5t-18.375-7.75h-62.5q-10.75 0-18.375 7.75t-7.625 18.5z" />
<glyph unicode="&#xf531;" d="M0 180.125q0 24.375 17.5 41.875l222 221.25q19.75 20.25 42 20.25h133.75q24.5 0 41.75-17.25t17.25-41.75v-133.5q0-21.75-20-41.75l-222-221.5q-17.5-17.5-41.875-17.5t-41.875 17.5l-131 131q-17.5 17-17.5 41.375zM285.75 330.5q0-22.75 16.25-38.875t39.25-16.125q22.75 0 38.875 16.125t16.125 38.875-16.125 38.875-38.875 16.125q-23 0-39.25-16.125t-16.25-38.875z" horiz-adv-x="475" />
<glyph unicode="&#xf532;" d="M0 126.75h98l82.5 148-54.5 94h-99.75l55.75-96.75zM162.25 176.75l107.25-192.75h98.25l-105 192.75 160.75 287.25h-99z" horiz-adv-x="424" />
<glyph unicode="&#xf533;" d="M0 224q0 48.75 19 93.25t51.125 76.625 76.625 51.125 93.25 19 93.25-19 76.625-51.25 51.125-76.625 19-93.125q0-49-19-93.375t-51.125-76.5-76.625-51.125-93.25-19-93.25 19-76.625 51.125-51.125 76.5-19 93.375zM126.5 168.5h52.75l44 79.25-29.25 50.25h-53.5l30-51.5zM213.5 195.25l57.25-103.25h53l-56.25 103.25 86 154h-53z" />
<glyph unicode="&#xf534;" d="M0 197.25q0 73.5 45.125 130.75t114.875 75.5v-56q-47.25-16.75-76.875-57.75t-29.625-92.5q0-32.5 12.625-62.125t34.125-51 51-34.125 62-12.75 62 12.625 50.875 34.125 34 51.125 12.625 62.125q0 51.5-29.625 92.625t-76.875 57.625v56q69.75-18.25 114.875-75.5t45.125-130.75q0-43.5-16.875-82.875t-45.375-68-68-45.5-82.75-16.875q-43.5 0-82.875 16.875t-68 45.5-45.5 68-16.875 82.875zM186.5 223.75q0-11 7.875-18.75t18.875-7.75 18.75 7.75 7.75 18.75v213.75q0 11-7.75 18.75t-18.75 7.75-18.875-7.75-7.875-18.75v-213.75z" horiz-adv-x="427" />
<glyph unicode="&#xf535;" d="M0 224q0 48.75 19 93.25t51.25 76.625 76.625 51.125 93.125 19 93.25-19 76.625-51.125 51.125-76.625 19-93.25-19-93.125-51.125-76.625-76.625-51.25-93.25-19-93.125 19-76.625 51.25-51.25 76.625-19 93.125zM41.25 224q0-40.25 15.75-77.125t42.375-63.5 63.5-42.375 77.125-15.75q70.5 0 125.5 44.5l-26.75 26.75q-44-34-98.75-34-33 0-62.875 12.75t-51.5 34.375-34.5 51.625-12.875 62.75q0 61.25 40.625 107.125t100.625 53.625v37.25q-49.5-5.25-90.25-32.75t-64.375-71.125-23.625-94.125zM119.5 224q0-37.75 22.25-69.25l37.75 38q-8 16-8 31.25t8 31.75l-37.75 37.75q-22.25-31-22.25-69.5zM170.5 125.5q31.5-22 69.75-22 38 0 69.5 22l-38 38q-16-8-31.75-8-15.5 0-31.5 8zM170.5 322.75l38-38q3.5 2 11 4.5v53.75q-28-5-49-20.25zM260.5 289.25q21.25-6.75 34.625-24.625t13.375-40.625q0-16.75-8-31.25l38-38q22.25 31.5 22.25 69.25 0 44.5-28.625 78t-71.625 41v-53.75zM260.5 384.75q29.5-3.75 55.625-17.875t45-35.375 29.875-49.25 11-58.25q0-55-34-98.5l26.25-26.5q44.5 54.5 44.5 125 0 50.5-23.625 94.125t-64.375 71.125-90.25 32.75v-37.25z" />
<glyph unicode="&#xf536;" d="M0-16q0 4.25 0.5 11.375t5.375 22.875 13.375 24.5q8.5 8.5 33.125 18.625t55.625 21.375 45.75 18.75q18.25 9.25 28.375 27.625t10.125 37.875q0 13.5-15.75 31.25-9 10-16 29.75-22.25 9.25-22.25 37.75 0 20.75 7.25 30-3 19.25-5 41-0.5 4-1.125 10.625t1.375 22.75 8 27.125q9.5 16.75 24 23.125t24 2.375l0.5 0.25q0.5 2.5 2.25 6.625t7.25 11 12.75 10.625q4 2 13.125 3.125t21.875 0.25 26.625-3.875 27.75-10.875 24.875-19.375 18-30.375 7.5-42.875q0-3.25-0.5-10.25-2.5-28.25-4.25-41 7-8.75 7-30 0-27.5-22.25-37.5-7.5-19.25-16.5-29.75-15.5-17.5-15.5-31.75 0-19.25 10.125-37.75t28.375-27.5q14.75-7.5 45.875-18.75t55.625-21.375 33-18.625q5.5-5.5 9.5-13.625t5.875-15.75 2.875-14.5 1.5-10.875l0.25-4.25h-500.25zM427.75 345.25v44h65.75v65.75h44.25v-65.75h65.5v-44h-65.5v-65.75h-44.25v65.75h-65.75z" horiz-adv-x="603" />
</font>
</defs>
</svg>
